G75*
%MOIN*%
%OFA0B0*%
%FSLAX24Y24*%
%IPPOS*%
%LPD*%
%AMOC8*
5,1,8,0,0,1.08239X$1,22.5*
%
%ADD10C,0.0010*%
%ADD11C,0.0787*%
%ADD12C,0.0748*%
%ADD13R,0.0660X0.0660*%
%ADD14OC8,0.0660*%
%ADD15R,0.1227X0.1227*%
%ADD16OC8,0.0600*%
%ADD17R,0.0480X0.0480*%
%ADD18C,0.0480*%
%ADD19C,0.0480*%
%ADD20OC8,0.0480*%
%ADD21R,0.0650X0.0650*%
%ADD22C,0.0650*%
%ADD23C,0.0660*%
%ADD24C,0.0413*%
%ADD25C,0.0472*%
%ADD26C,0.0160*%
%ADD27C,0.0320*%
%ADD28C,0.0240*%
D10*
X001260Y001510D02*
X039236Y001510D01*
X039280Y001512D01*
X039323Y001518D01*
X039366Y001527D01*
X039407Y001540D01*
X039448Y001557D01*
X039487Y001577D01*
X039523Y001601D01*
X039558Y001627D01*
X039590Y001657D01*
X039620Y001689D01*
X039646Y001724D01*
X039670Y001760D01*
X039690Y001799D01*
X039707Y001840D01*
X039720Y001881D01*
X039729Y001924D01*
X039735Y001967D01*
X039737Y002011D01*
X039736Y002011D02*
X039736Y008514D01*
X039737Y008514D02*
X039735Y008556D01*
X039730Y008597D01*
X039721Y008637D01*
X039708Y008677D01*
X039692Y008716D01*
X039673Y008753D01*
X039651Y008788D01*
X039625Y008821D01*
X039597Y008851D01*
X039567Y008879D01*
X039534Y008905D01*
X039499Y008927D01*
X039462Y008946D01*
X039423Y008962D01*
X039383Y008975D01*
X039343Y008984D01*
X039302Y008989D01*
X039260Y008991D01*
X039260Y008990D02*
X001240Y008990D01*
X001198Y008988D01*
X001157Y008983D01*
X001116Y008974D01*
X001076Y008961D01*
X001037Y008945D01*
X001000Y008926D01*
X000965Y008903D01*
X000931Y008878D01*
X000901Y008849D01*
X000872Y008819D01*
X000847Y008785D01*
X000824Y008750D01*
X000805Y008713D01*
X000789Y008674D01*
X000776Y008634D01*
X000767Y008593D01*
X000762Y008552D01*
X000760Y008510D01*
X000760Y002010D01*
X000762Y001966D01*
X000768Y001923D01*
X000777Y001881D01*
X000790Y001839D01*
X000807Y001799D01*
X000827Y001760D01*
X000850Y001723D01*
X000877Y001689D01*
X000906Y001656D01*
X000939Y001627D01*
X000973Y001600D01*
X001010Y001577D01*
X001049Y001557D01*
X001089Y001540D01*
X001131Y001527D01*
X001173Y001518D01*
X001216Y001512D01*
X001260Y001510D01*
D11*
X008603Y003560D02*
X009390Y003560D01*
X010059Y004866D02*
X010059Y005654D01*
X006970Y005654D02*
X006970Y004866D01*
X004550Y004866D02*
X004550Y005654D01*
X001461Y005654D02*
X001461Y004866D01*
X002130Y006960D02*
X002917Y006960D01*
D12*
X008622Y007010D02*
X009370Y007010D01*
X002898Y003510D02*
X002150Y003510D01*
D13*
X013754Y006244D03*
D14*
X013754Y005260D03*
X013754Y004276D03*
D15*
X016510Y003488D03*
X016510Y007032D03*
D16*
X032760Y005760D03*
X033760Y005760D03*
X034760Y005760D03*
X035760Y005760D03*
X036760Y005760D03*
X036760Y004760D03*
X035760Y004760D03*
X034760Y004760D03*
X033760Y004760D03*
X032760Y004760D03*
D17*
X028260Y004260D03*
D18*
X028260Y007260D03*
D19*
X009750Y008260D02*
X009270Y008260D01*
X006750Y008260D02*
X006270Y008260D01*
D20*
X012260Y007260D03*
X019510Y008510D03*
X020510Y008510D03*
X022010Y007010D03*
X027010Y006760D03*
X022010Y005010D03*
X020510Y004510D03*
X019510Y004510D03*
X020010Y003010D03*
X020010Y002010D03*
X024010Y002010D03*
X024010Y003010D03*
X025010Y003010D03*
X029010Y003010D03*
X034760Y003510D03*
X036760Y003510D03*
X027010Y004760D03*
X034760Y007010D03*
X036760Y007010D03*
X012260Y003260D03*
D21*
X032510Y007760D03*
X033260Y002510D03*
D22*
X032260Y002510D03*
X033510Y007760D03*
D23*
X034760Y008010D03*
X038760Y008010D03*
X038760Y002510D03*
X034760Y002510D03*
D24*
X026010Y004303D02*
X026010Y004717D01*
X025010Y004717D02*
X025010Y004303D01*
X024010Y004303D02*
X024010Y004717D01*
X023010Y004717D02*
X023010Y004303D01*
X023010Y007303D02*
X023010Y007717D01*
X024010Y007717D02*
X024010Y007303D01*
X025010Y007303D02*
X025010Y007717D01*
X026010Y007717D02*
X026010Y007303D01*
D25*
X030260Y008038D02*
X030260Y008510D01*
X031260Y008510D02*
X031260Y008038D01*
D26*
X031260Y008009D02*
X031260Y008009D01*
X031260Y007850D02*
X031260Y007850D01*
X031531Y007720D02*
X031577Y007766D01*
X031616Y007819D01*
X031646Y007878D01*
X031666Y007940D01*
X031676Y008005D01*
X031676Y008510D01*
X031676Y008543D01*
X031666Y008607D01*
X031646Y008670D01*
X031616Y008728D01*
X031577Y008781D01*
X031553Y008805D01*
X039260Y008805D01*
X039317Y008800D01*
X039422Y008756D01*
X039502Y008676D01*
X039546Y008570D01*
X039551Y008514D01*
X039551Y002011D01*
X039545Y001949D01*
X039498Y001835D01*
X039411Y001748D01*
X039297Y001701D01*
X039236Y001695D01*
X024232Y001695D01*
X024390Y001853D01*
X024390Y002167D01*
X024307Y002250D01*
X028228Y002250D01*
X028579Y002344D01*
X028893Y002525D01*
X028998Y002630D01*
X029167Y002630D01*
X029390Y002853D01*
X029390Y003167D01*
X029167Y003390D01*
X028853Y003390D01*
X028630Y003167D01*
X028630Y003001D01*
X028569Y002947D01*
X028375Y002835D01*
X028159Y002777D01*
X028047Y002770D01*
X025307Y002770D01*
X025390Y002853D01*
X025390Y003167D01*
X025167Y003390D01*
X024853Y003390D01*
X024630Y003167D01*
X024630Y002853D01*
X024713Y002770D01*
X024307Y002770D01*
X024390Y002853D01*
X024390Y003167D01*
X024167Y003390D01*
X023853Y003390D01*
X023630Y003167D01*
X023630Y002853D01*
X023713Y002770D01*
X020364Y002770D01*
X020430Y002836D01*
X020430Y003010D01*
X020430Y003184D01*
X020184Y003430D01*
X020010Y003430D01*
X020010Y003010D01*
X020010Y003010D01*
X020430Y003010D01*
X020010Y003010D01*
X020010Y003010D01*
X020010Y003010D01*
X019590Y003010D01*
X019590Y003184D01*
X019836Y003430D01*
X020010Y003430D01*
X020010Y003010D01*
X019590Y003010D01*
X019590Y002836D01*
X019656Y002770D01*
X017216Y002770D01*
X017263Y002817D01*
X017263Y004160D01*
X017181Y004242D01*
X015839Y004242D01*
X015757Y004160D01*
X015757Y002817D01*
X015804Y002770D01*
X006279Y002770D01*
X006095Y002782D01*
X005740Y002877D01*
X005421Y003061D01*
X005161Y003321D01*
X004977Y003640D01*
X004882Y003995D01*
X004870Y004179D01*
X004870Y004432D01*
X005002Y004564D01*
X005083Y004760D01*
X005083Y005760D01*
X005002Y005956D01*
X004852Y006106D01*
X004656Y006187D01*
X004444Y006187D01*
X004247Y006106D01*
X004097Y005956D01*
X004016Y005760D01*
X004016Y004760D01*
X004097Y004564D01*
X004247Y004414D01*
X004350Y004371D01*
X004350Y003925D01*
X004481Y003434D01*
X004735Y002995D01*
X005095Y002635D01*
X005534Y002381D01*
X006025Y002250D01*
X019713Y002250D01*
X019630Y002167D01*
X019630Y001853D01*
X019788Y001695D01*
X001260Y001695D01*
X001199Y001701D01*
X001085Y001748D01*
X000998Y001835D01*
X000951Y001949D01*
X000945Y002010D01*
X000945Y004717D01*
X001008Y004564D01*
X001158Y004414D01*
X001355Y004333D01*
X001567Y004333D01*
X001763Y004414D01*
X001913Y004564D01*
X001994Y004760D01*
X001994Y005760D01*
X001913Y005956D01*
X001763Y006106D01*
X001567Y006187D01*
X001355Y006187D01*
X001158Y006106D01*
X001008Y005956D01*
X000945Y005803D01*
X000945Y008510D01*
X000951Y008568D01*
X000995Y008674D01*
X001076Y008756D01*
X001183Y008800D01*
X001240Y008805D01*
X011286Y008805D01*
X010927Y008709D01*
X010590Y008515D01*
X010495Y008419D01*
X010453Y008377D01*
X010411Y008335D01*
X010411Y008335D01*
X010276Y008200D01*
X009999Y007785D01*
X009815Y007341D01*
X009793Y007371D01*
X009731Y007433D01*
X009661Y007484D01*
X009583Y007524D01*
X009500Y007551D01*
X009414Y007564D01*
X008996Y007564D01*
X008579Y007564D01*
X008492Y007551D01*
X008410Y007524D01*
X008332Y007484D01*
X008261Y007433D01*
X008200Y007371D01*
X008148Y007301D01*
X008109Y007223D01*
X008082Y007140D01*
X008068Y007054D01*
X008068Y007010D01*
X008068Y006967D01*
X008082Y006881D01*
X008109Y006798D01*
X008148Y006720D01*
X008200Y006649D01*
X008261Y006588D01*
X008332Y006537D01*
X008410Y006497D01*
X008492Y006470D01*
X008579Y006456D01*
X008996Y006456D01*
X008996Y007010D01*
X008996Y007010D01*
X008068Y007010D01*
X008996Y007010D01*
X008996Y007010D01*
X008996Y006456D01*
X009414Y006456D01*
X009500Y006470D01*
X009583Y006497D01*
X009661Y006537D01*
X009710Y006572D01*
X009710Y006059D01*
X009607Y005956D01*
X009526Y005760D01*
X009526Y004760D01*
X009607Y004564D01*
X009757Y004414D01*
X009953Y004333D01*
X010165Y004333D01*
X010362Y004414D01*
X010512Y004564D01*
X010593Y004760D01*
X010593Y005760D01*
X010512Y005956D01*
X010362Y006106D01*
X010310Y006127D01*
X010310Y006584D01*
X010319Y006774D01*
X010393Y007146D01*
X010539Y007496D01*
X010749Y007812D01*
X010877Y007953D01*
X010963Y008029D01*
X011162Y008143D01*
X011383Y008202D01*
X011498Y008210D01*
X017742Y008210D01*
X017866Y008202D01*
X018106Y008138D01*
X018321Y008014D01*
X018414Y007932D01*
X018456Y007890D01*
X018456Y007890D01*
X018633Y007713D01*
X018685Y007661D01*
X018914Y007529D01*
X019170Y007460D01*
X020803Y007460D01*
X021099Y007537D01*
X021099Y007537D01*
X021367Y007685D01*
X021434Y007749D01*
X021434Y007749D01*
X021876Y008169D01*
X021876Y008169D01*
X021920Y008210D01*
X021990Y008269D01*
X022150Y008358D01*
X022328Y008404D01*
X022420Y008410D01*
X023236Y008410D01*
X023155Y008329D01*
X023152Y008326D01*
X022852Y008027D01*
X022814Y008011D01*
X022716Y007913D01*
X022663Y007786D01*
X022663Y007234D01*
X022716Y007107D01*
X022814Y007009D01*
X022941Y006957D01*
X023079Y006957D01*
X023206Y007009D01*
X023304Y007107D01*
X023357Y007234D01*
X023357Y007682D01*
X023576Y007902D01*
X023579Y007905D01*
X023619Y007944D01*
X023627Y007951D01*
X023646Y007959D01*
X023656Y007960D01*
X023763Y007960D01*
X023716Y007913D01*
X023663Y007786D01*
X023663Y007338D01*
X023545Y007219D01*
X023545Y007219D01*
X023541Y007215D01*
X023503Y007177D01*
X023287Y006982D01*
X022805Y006659D01*
X022269Y006437D01*
X021700Y006324D01*
X021410Y006310D01*
X017213Y006310D01*
X017263Y006360D01*
X017263Y007703D01*
X017181Y007785D01*
X015839Y007785D01*
X015757Y007703D01*
X015757Y006360D01*
X015807Y006310D01*
X015687Y006310D01*
X015592Y006316D01*
X015407Y006366D01*
X015242Y006461D01*
X015170Y006524D01*
X014592Y007102D01*
X014591Y007103D01*
X014507Y007187D01*
X014418Y007277D01*
X014094Y007463D01*
X013734Y007560D01*
X012497Y007560D01*
X012417Y007640D01*
X012103Y007640D01*
X011880Y007417D01*
X011880Y007103D01*
X012103Y006880D01*
X012417Y006880D01*
X012497Y006960D01*
X013547Y006960D01*
X013654Y006953D01*
X013860Y006898D01*
X014045Y006791D01*
X014125Y006720D01*
X014131Y006714D01*
X013366Y006714D01*
X013284Y006632D01*
X013284Y005856D01*
X013366Y005774D01*
X014142Y005774D01*
X014224Y005856D01*
X014224Y006622D01*
X014788Y006058D01*
X014788Y006058D01*
X014870Y005976D01*
X015173Y005801D01*
X015173Y005801D01*
X015512Y005710D01*
X021760Y005710D01*
X022448Y005847D01*
X022448Y005847D01*
X023096Y006115D01*
X023679Y006505D01*
X023885Y006710D01*
X023965Y006791D01*
X023969Y006795D01*
X024168Y006993D01*
X024206Y007009D01*
X024304Y007107D01*
X024357Y007234D01*
X024357Y007786D01*
X024304Y007913D01*
X024257Y007960D01*
X024763Y007960D01*
X024716Y007913D01*
X024663Y007786D01*
X024663Y007234D01*
X024716Y007107D01*
X024814Y007009D01*
X024941Y006957D01*
X025079Y006957D01*
X025206Y007009D01*
X025304Y007107D01*
X025357Y007234D01*
X025357Y007786D01*
X025304Y007913D01*
X025257Y007960D01*
X025763Y007960D01*
X025716Y007913D01*
X025663Y007786D01*
X025663Y007234D01*
X025710Y007122D01*
X025710Y006699D01*
X025707Y006669D01*
X025684Y006612D01*
X025664Y006588D01*
X025571Y006506D01*
X025356Y006382D01*
X025116Y006318D01*
X024992Y006310D01*
X024033Y006310D01*
X023786Y006310D01*
X023426Y006213D01*
X023102Y006027D01*
X023013Y005937D01*
X023013Y005937D01*
X022970Y005895D01*
X022952Y005876D01*
X022928Y005852D01*
X022845Y005770D01*
X022710Y005443D01*
X022710Y004898D01*
X022663Y004786D01*
X022663Y004234D01*
X022716Y004107D01*
X022814Y004009D01*
X022941Y003957D01*
X023079Y003957D01*
X023206Y004009D01*
X023304Y004107D01*
X023357Y004234D01*
X023357Y004786D01*
X023310Y004898D01*
X023310Y005266D01*
X023316Y005322D01*
X023359Y005427D01*
X023395Y005470D01*
X023395Y005470D01*
X023475Y005541D01*
X023660Y005648D01*
X023866Y005703D01*
X023973Y005710D01*
X025196Y005710D01*
X025591Y005816D01*
X025944Y006020D01*
X026046Y006122D01*
X026046Y006122D01*
X026088Y006164D01*
X026088Y006164D01*
X026089Y006165D01*
X026130Y006206D01*
X026130Y006206D01*
X026195Y006270D01*
X026195Y006270D01*
X026310Y006549D01*
X026310Y007122D01*
X026357Y007234D01*
X026357Y007786D01*
X026304Y007913D01*
X026257Y007960D01*
X028368Y007960D01*
X028419Y007957D01*
X028517Y007930D01*
X028606Y007879D01*
X028644Y007846D01*
X029834Y006655D01*
X029834Y006655D01*
X029906Y006583D01*
X029906Y006583D01*
X030204Y006460D01*
X032295Y006460D01*
X032600Y006542D01*
X032600Y006542D01*
X032874Y006700D01*
X032874Y006700D01*
X032944Y006770D01*
X033469Y007295D01*
X033602Y007295D01*
X033773Y007366D01*
X033904Y007497D01*
X033975Y007668D01*
X033975Y007852D01*
X033904Y008023D01*
X033773Y008154D01*
X033602Y008225D01*
X033418Y008225D01*
X033247Y008154D01*
X033116Y008023D01*
X033045Y007852D01*
X033045Y007719D01*
X033015Y007689D01*
X033015Y007760D01*
X033015Y008109D01*
X033003Y008154D01*
X032979Y008196D01*
X032946Y008229D01*
X032904Y008253D01*
X032859Y008265D01*
X032510Y008265D01*
X032510Y007760D01*
X032510Y007760D01*
X033015Y007760D01*
X032510Y007760D01*
X032510Y007760D01*
X032510Y007255D01*
X032581Y007255D01*
X032562Y007236D01*
X032503Y007184D01*
X032367Y007106D01*
X032215Y007065D01*
X032137Y007060D01*
X030366Y007060D01*
X030324Y007064D01*
X030248Y007096D01*
X030216Y007122D01*
X029026Y008312D01*
X028976Y008362D01*
X028976Y008362D01*
X028893Y008410D01*
X029884Y008410D01*
X029884Y007963D01*
X029941Y007824D01*
X030047Y007719D01*
X030185Y007661D01*
X030335Y007661D01*
X030473Y007719D01*
X030579Y007824D01*
X030636Y007963D01*
X030636Y008585D01*
X030579Y008723D01*
X030497Y008805D01*
X030967Y008805D01*
X030943Y008781D01*
X030904Y008728D01*
X030874Y008670D01*
X030854Y008607D01*
X030844Y008543D01*
X030844Y008510D01*
X030844Y008005D01*
X030854Y007940D01*
X030874Y007878D01*
X030904Y007819D01*
X030943Y007766D01*
X030989Y007720D01*
X031042Y007682D01*
X031100Y007652D01*
X031163Y007632D01*
X031227Y007621D01*
X031260Y007621D01*
X031293Y007621D01*
X031357Y007632D01*
X031420Y007652D01*
X031478Y007682D01*
X031531Y007720D01*
X031492Y007692D02*
X032005Y007692D01*
X032005Y007760D02*
X032005Y007411D01*
X032017Y007366D01*
X032041Y007324D01*
X032074Y007291D01*
X032116Y007267D01*
X032161Y007255D01*
X032510Y007255D01*
X032510Y007760D01*
X032510Y007760D01*
X032510Y007760D01*
X032005Y007760D01*
X032005Y008109D01*
X032017Y008154D01*
X032041Y008196D01*
X032074Y008229D01*
X032116Y008253D01*
X032161Y008265D01*
X032510Y008265D01*
X032510Y007760D01*
X032005Y007760D01*
X032005Y007850D02*
X031632Y007850D01*
X031676Y008009D02*
X032005Y008009D01*
X032510Y008009D02*
X032510Y008009D01*
X032510Y007850D02*
X032510Y007850D01*
X033015Y007850D02*
X033045Y007850D01*
X033015Y008009D02*
X033110Y008009D01*
X032995Y008167D02*
X033278Y008167D01*
X033742Y008167D02*
X034275Y008167D01*
X034263Y008129D02*
X034287Y008206D01*
X034324Y008277D01*
X034371Y008342D01*
X034428Y008399D01*
X034493Y008446D01*
X034564Y008483D01*
X034641Y008507D01*
X034720Y008520D01*
X034730Y008520D01*
X034730Y008040D01*
X034790Y008040D01*
X035270Y008040D01*
X035270Y008050D01*
X035257Y008129D01*
X035233Y008206D01*
X035196Y008277D01*
X035149Y008342D01*
X035092Y008399D01*
X035027Y008446D01*
X034956Y008483D01*
X034879Y008507D01*
X034800Y008520D01*
X034790Y008520D01*
X034790Y008040D01*
X034790Y007980D01*
X035270Y007980D01*
X035270Y007970D01*
X035257Y007891D01*
X035233Y007814D01*
X035196Y007743D01*
X035149Y007678D01*
X035092Y007621D01*
X035027Y007574D01*
X034956Y007537D01*
X034879Y007513D01*
X034800Y007500D01*
X034790Y007500D01*
X034790Y007980D01*
X034730Y007980D01*
X034730Y007500D01*
X034720Y007500D01*
X034641Y007513D01*
X034564Y007537D01*
X034493Y007574D01*
X034428Y007621D01*
X034371Y007678D01*
X034324Y007743D01*
X034287Y007814D01*
X034263Y007891D01*
X034250Y007970D01*
X034250Y007980D01*
X034730Y007980D01*
X034730Y008040D01*
X034250Y008040D01*
X034250Y008050D01*
X034263Y008129D01*
X033910Y008009D02*
X034730Y008009D01*
X034790Y008009D02*
X038290Y008009D01*
X038290Y007917D02*
X038362Y007744D01*
X038494Y007612D01*
X038667Y007540D01*
X038853Y007540D01*
X039026Y007612D01*
X039158Y007744D01*
X039230Y007917D01*
X039230Y008103D01*
X039158Y008276D01*
X039026Y008408D01*
X038853Y008480D01*
X038667Y008480D01*
X038494Y008408D01*
X038362Y008276D01*
X038290Y008103D01*
X038290Y007917D01*
X038318Y007850D02*
X035244Y007850D01*
X034790Y007850D02*
X034730Y007850D01*
X034276Y007850D02*
X033975Y007850D01*
X033975Y007692D02*
X034361Y007692D01*
X034578Y007533D02*
X033919Y007533D01*
X033782Y007375D02*
X034587Y007375D01*
X034603Y007390D02*
X034380Y007167D01*
X034380Y006853D01*
X034603Y006630D01*
X034917Y006630D01*
X035140Y006853D01*
X035140Y007167D01*
X034917Y007390D01*
X034603Y007390D01*
X034933Y007375D02*
X036587Y007375D01*
X036603Y007390D02*
X036380Y007167D01*
X036380Y006853D01*
X036603Y006630D01*
X036917Y006630D01*
X037140Y006853D01*
X037140Y007167D01*
X036917Y007390D01*
X036603Y007390D01*
X036933Y007375D02*
X039551Y007375D01*
X039551Y007533D02*
X034942Y007533D01*
X034790Y007533D02*
X034730Y007533D01*
X034730Y007692D02*
X034790Y007692D01*
X035159Y007692D02*
X038414Y007692D01*
X039106Y007692D02*
X039551Y007692D01*
X039551Y007850D02*
X039202Y007850D01*
X039230Y008009D02*
X039551Y008009D01*
X039551Y008167D02*
X039204Y008167D01*
X039109Y008326D02*
X039551Y008326D01*
X039551Y008484D02*
X034952Y008484D01*
X034790Y008484D02*
X034730Y008484D01*
X034568Y008484D02*
X031676Y008484D01*
X031676Y008510D02*
X031260Y008510D01*
X031676Y008510D01*
X031655Y008643D02*
X039516Y008643D01*
X039303Y008801D02*
X031558Y008801D01*
X030962Y008801D02*
X030501Y008801D01*
X030612Y008643D02*
X030865Y008643D01*
X030844Y008510D02*
X031260Y008510D01*
X031260Y008510D01*
X031260Y007621D01*
X031260Y008510D01*
X031260Y008510D01*
X031260Y008510D01*
X030844Y008510D01*
X030844Y008484D02*
X030636Y008484D01*
X030636Y008326D02*
X030844Y008326D01*
X030844Y008167D02*
X030636Y008167D01*
X030636Y008009D02*
X030844Y008009D01*
X030888Y007850D02*
X030590Y007850D01*
X030408Y007692D02*
X031028Y007692D01*
X031260Y007692D02*
X031260Y007692D01*
X032005Y007533D02*
X029805Y007533D01*
X029647Y007692D02*
X030112Y007692D01*
X029930Y007850D02*
X029488Y007850D01*
X029330Y008009D02*
X029884Y008009D01*
X029884Y008167D02*
X029171Y008167D01*
X029026Y008312D02*
X029026Y008312D01*
X029013Y008326D02*
X029884Y008326D01*
X028639Y007850D02*
X026330Y007850D01*
X026357Y007692D02*
X028798Y007692D01*
X028957Y007533D02*
X028524Y007533D01*
X028475Y007582D02*
X028336Y007640D01*
X028184Y007640D01*
X028045Y007582D01*
X027938Y007475D01*
X027880Y007336D01*
X027880Y007184D01*
X027938Y007045D01*
X028045Y006938D01*
X028184Y006880D01*
X028336Y006880D01*
X028475Y006938D01*
X028582Y007045D01*
X028640Y007184D01*
X028640Y007336D01*
X028582Y007475D01*
X028475Y007582D01*
X027996Y007533D02*
X026357Y007533D01*
X026357Y007375D02*
X027896Y007375D01*
X028624Y007375D02*
X029115Y007375D01*
X029274Y007216D02*
X028640Y007216D01*
X028587Y007058D02*
X029432Y007058D01*
X029591Y006899D02*
X028381Y006899D01*
X028139Y006899D02*
X027430Y006899D01*
X027430Y006934D02*
X027430Y006760D01*
X027010Y006760D01*
X027010Y006760D01*
X027010Y007180D01*
X027184Y007180D01*
X027430Y006934D01*
X027306Y007058D02*
X027933Y007058D01*
X027880Y007216D02*
X026349Y007216D01*
X026310Y007058D02*
X026714Y007058D01*
X026836Y007180D02*
X026590Y006934D01*
X026590Y006760D01*
X027010Y006760D01*
X027010Y006760D01*
X027010Y006760D01*
X027010Y007180D01*
X026836Y007180D01*
X027010Y007058D02*
X027010Y007058D01*
X027010Y006899D02*
X027010Y006899D01*
X027010Y006760D02*
X026590Y006760D01*
X026590Y006586D01*
X026836Y006340D01*
X027010Y006340D01*
X027184Y006340D01*
X027430Y006586D01*
X027430Y006760D01*
X027010Y006760D01*
X027010Y006340D01*
X027010Y006760D01*
X027010Y006760D01*
X027010Y006741D02*
X027010Y006741D01*
X027430Y006741D02*
X029749Y006741D01*
X029910Y006582D02*
X027426Y006582D01*
X027267Y006424D02*
X039551Y006424D01*
X039551Y006582D02*
X032670Y006582D01*
X032915Y006741D02*
X034492Y006741D01*
X034380Y006899D02*
X033073Y006899D01*
X032944Y006770D02*
X032944Y006770D01*
X033232Y007058D02*
X034380Y007058D01*
X034429Y007216D02*
X033390Y007216D01*
X032539Y007216D02*
X030122Y007216D01*
X029964Y007375D02*
X032015Y007375D01*
X032510Y007375D02*
X032510Y007375D01*
X032510Y007533D02*
X032510Y007533D01*
X032510Y007692D02*
X032510Y007692D01*
X033015Y007692D02*
X033017Y007692D01*
X032510Y008167D02*
X032510Y008167D01*
X032025Y008167D02*
X031676Y008167D01*
X031676Y008326D02*
X034359Y008326D01*
X034730Y008326D02*
X034790Y008326D01*
X034790Y008167D02*
X034730Y008167D01*
X035161Y008326D02*
X038411Y008326D01*
X038316Y008167D02*
X035245Y008167D01*
X031260Y008167D02*
X031260Y008167D01*
X031260Y008326D02*
X031260Y008326D01*
X031260Y008484D02*
X031260Y008484D01*
X035091Y007216D02*
X036429Y007216D01*
X036380Y007058D02*
X035140Y007058D01*
X035140Y006899D02*
X036380Y006899D01*
X036492Y006741D02*
X035028Y006741D01*
X034959Y006240D02*
X034780Y006240D01*
X034780Y005780D01*
X035240Y005780D01*
X035240Y005959D01*
X034959Y006240D01*
X035092Y006107D02*
X035428Y006107D01*
X035561Y006240D02*
X035280Y005959D01*
X035280Y005780D01*
X035740Y005780D01*
X035740Y006240D01*
X035561Y006240D01*
X035780Y006240D02*
X035959Y006240D01*
X036240Y005959D01*
X036240Y005780D01*
X035780Y005780D01*
X035780Y005740D01*
X036240Y005740D01*
X036240Y005561D01*
X035959Y005280D01*
X035780Y005280D01*
X035780Y005740D01*
X035740Y005740D01*
X035740Y005280D01*
X035561Y005280D01*
X035280Y005561D01*
X035280Y005740D01*
X035740Y005740D01*
X035740Y005780D01*
X035780Y005780D01*
X035780Y006240D01*
X035780Y006107D02*
X035740Y006107D01*
X036092Y006107D02*
X036484Y006107D01*
X036578Y006200D02*
X036320Y005942D01*
X036320Y005578D01*
X036578Y005320D01*
X036942Y005320D01*
X037200Y005578D01*
X037200Y005942D01*
X036942Y006200D01*
X036578Y006200D01*
X037036Y006107D02*
X039551Y006107D01*
X039551Y006265D02*
X026189Y006265D01*
X026031Y006107D02*
X032484Y006107D01*
X032578Y006200D02*
X032320Y005942D01*
X032320Y005578D01*
X032578Y005320D01*
X032942Y005320D01*
X033200Y005578D01*
X033200Y005942D01*
X032942Y006200D01*
X032578Y006200D01*
X033036Y006107D02*
X033428Y006107D01*
X033561Y006240D02*
X033280Y005959D01*
X033280Y005780D01*
X033740Y005780D01*
X033740Y006240D01*
X033561Y006240D01*
X033780Y006240D02*
X033959Y006240D01*
X034240Y005959D01*
X034240Y005780D01*
X033780Y005780D01*
X033780Y005740D01*
X034240Y005740D01*
X034240Y005561D01*
X033959Y005280D01*
X033780Y005280D01*
X033780Y005740D01*
X033740Y005740D01*
X033740Y005280D01*
X033561Y005280D01*
X033280Y005561D01*
X033280Y005740D01*
X033740Y005740D01*
X033740Y005780D01*
X033780Y005780D01*
X033780Y006240D01*
X033780Y006107D02*
X033740Y006107D01*
X034092Y006107D02*
X034428Y006107D01*
X034561Y006240D02*
X034280Y005959D01*
X034280Y005780D01*
X034740Y005780D01*
X034740Y006240D01*
X034561Y006240D01*
X034740Y006107D02*
X034780Y006107D01*
X034780Y005948D02*
X034740Y005948D01*
X034740Y005790D02*
X034780Y005790D01*
X034780Y005780D02*
X034740Y005780D01*
X034740Y005740D01*
X034780Y005740D01*
X034780Y005780D01*
X034780Y005740D02*
X035240Y005740D01*
X035240Y005561D01*
X034959Y005280D01*
X034780Y005280D01*
X034780Y005740D01*
X034740Y005740D02*
X034740Y005280D01*
X034561Y005280D01*
X034280Y005561D01*
X034280Y005740D01*
X034740Y005740D01*
X034740Y005631D02*
X034780Y005631D01*
X034780Y005473D02*
X034740Y005473D01*
X034369Y005473D02*
X034151Y005473D01*
X034240Y005631D02*
X034280Y005631D01*
X033780Y005631D02*
X033740Y005631D01*
X033740Y005473D02*
X033780Y005473D01*
X033369Y005473D02*
X033095Y005473D01*
X033200Y005631D02*
X033280Y005631D01*
X033280Y005790D02*
X033200Y005790D01*
X033194Y005948D02*
X033280Y005948D01*
X033740Y005948D02*
X033780Y005948D01*
X033780Y005790D02*
X033740Y005790D01*
X034240Y005790D02*
X034280Y005790D01*
X034280Y005948D02*
X034240Y005948D01*
X035240Y005948D02*
X035280Y005948D01*
X035280Y005790D02*
X035240Y005790D01*
X035240Y005631D02*
X035280Y005631D01*
X035369Y005473D02*
X035151Y005473D01*
X034993Y005314D02*
X035527Y005314D01*
X035561Y005240D02*
X035280Y004959D01*
X035280Y004780D01*
X035740Y004780D01*
X035740Y005240D01*
X035561Y005240D01*
X035477Y005156D02*
X035043Y005156D01*
X034959Y005240D02*
X034780Y005240D01*
X034780Y004780D01*
X035240Y004780D01*
X035240Y004959D01*
X034959Y005240D01*
X034780Y005314D02*
X034740Y005314D01*
X034740Y005240D02*
X034561Y005240D01*
X034280Y004959D01*
X034280Y004780D01*
X034740Y004780D01*
X034740Y005240D01*
X034740Y005156D02*
X034780Y005156D01*
X034780Y004997D02*
X034740Y004997D01*
X034477Y005156D02*
X034043Y005156D01*
X033959Y005240D02*
X033780Y005240D01*
X033780Y004780D01*
X034240Y004780D01*
X034240Y004959D01*
X033959Y005240D01*
X033993Y005314D02*
X034527Y005314D01*
X033780Y005314D02*
X033740Y005314D01*
X033740Y005240D02*
X033561Y005240D01*
X033280Y004959D01*
X033280Y004780D01*
X033740Y004780D01*
X033740Y005240D01*
X033740Y005156D02*
X033780Y005156D01*
X033780Y004997D02*
X033740Y004997D01*
X033477Y005156D02*
X032987Y005156D01*
X032942Y005200D02*
X032578Y005200D01*
X032320Y004942D01*
X032320Y004578D01*
X032578Y004320D01*
X032942Y004320D01*
X033200Y004578D01*
X033200Y004942D01*
X032942Y005200D01*
X032533Y005156D02*
X023310Y005156D01*
X023310Y004997D02*
X023800Y004997D01*
X023814Y005011D02*
X023716Y004913D01*
X023663Y004786D01*
X023663Y004234D01*
X023716Y004107D01*
X023814Y004009D01*
X023941Y003957D01*
X024079Y003957D01*
X024206Y004009D01*
X024304Y004107D01*
X024357Y004234D01*
X024357Y004786D01*
X024304Y004913D01*
X024206Y005011D01*
X024079Y005063D01*
X023941Y005063D01*
X023814Y005011D01*
X024220Y004997D02*
X024800Y004997D01*
X024814Y005011D02*
X024716Y004913D01*
X024663Y004786D01*
X024663Y004234D01*
X024716Y004107D01*
X024814Y004009D01*
X024941Y003957D01*
X025079Y003957D01*
X025206Y004009D01*
X025304Y004107D01*
X025357Y004234D01*
X025357Y004786D01*
X025304Y004913D01*
X025206Y005011D01*
X025079Y005063D01*
X024941Y005063D01*
X024814Y005011D01*
X025220Y004997D02*
X025800Y004997D01*
X025814Y005011D02*
X025716Y004913D01*
X025663Y004786D01*
X025663Y004234D01*
X025716Y004107D01*
X025814Y004009D01*
X025941Y003957D01*
X026079Y003957D01*
X026206Y004009D01*
X026304Y004107D01*
X026347Y004210D01*
X026820Y004210D01*
X026930Y004256D01*
X027054Y004380D01*
X027167Y004380D01*
X027247Y004460D01*
X027880Y004460D01*
X027880Y003962D01*
X027962Y003880D01*
X028558Y003880D01*
X028640Y003962D01*
X028640Y004460D01*
X030571Y004460D01*
X030670Y004453D01*
X030862Y004402D01*
X031034Y004303D01*
X031109Y004237D01*
X032337Y003009D01*
X032300Y003015D01*
X032260Y003015D01*
X032260Y002510D01*
X032765Y002510D01*
X032765Y002550D01*
X032759Y002587D01*
X032795Y002551D01*
X032795Y002127D01*
X032877Y002045D01*
X033643Y002045D01*
X033725Y002127D01*
X033725Y002893D01*
X033643Y002975D01*
X033219Y002975D01*
X031491Y004704D01*
X031491Y004704D01*
X031406Y004788D01*
X031096Y004967D01*
X031096Y004967D01*
X030750Y005060D01*
X027247Y005060D01*
X027167Y005140D01*
X026853Y005140D01*
X026630Y004917D01*
X026630Y004810D01*
X026347Y004810D01*
X026304Y004913D01*
X026206Y005011D01*
X026079Y005063D01*
X025941Y005063D01*
X025814Y005011D01*
X026220Y004997D02*
X026710Y004997D01*
X026630Y004839D02*
X026335Y004839D01*
X025685Y004839D02*
X025335Y004839D01*
X025357Y004680D02*
X025663Y004680D01*
X025663Y004522D02*
X025357Y004522D01*
X025357Y004363D02*
X025663Y004363D01*
X025676Y004205D02*
X025344Y004205D01*
X025243Y004046D02*
X025777Y004046D01*
X026243Y004046D02*
X027880Y004046D01*
X027880Y004205D02*
X026344Y004205D01*
X027037Y004363D02*
X027880Y004363D01*
X028640Y004363D02*
X030929Y004363D01*
X031141Y004205D02*
X028640Y004205D01*
X028640Y004046D02*
X031300Y004046D01*
X031990Y004205D02*
X039551Y004205D01*
X039551Y004046D02*
X032148Y004046D01*
X032307Y003888D02*
X034600Y003888D01*
X034603Y003890D02*
X034380Y003667D01*
X034380Y003353D01*
X034603Y003130D01*
X034917Y003130D01*
X035140Y003353D01*
X035140Y003667D01*
X034917Y003890D01*
X034603Y003890D01*
X034442Y003729D02*
X032465Y003729D01*
X032624Y003571D02*
X034380Y003571D01*
X034380Y003412D02*
X032782Y003412D01*
X032941Y003254D02*
X034479Y003254D01*
X035041Y003254D02*
X036479Y003254D01*
X036380Y003353D02*
X036603Y003130D01*
X036917Y003130D01*
X037140Y003353D01*
X037140Y003667D01*
X036917Y003890D01*
X036603Y003890D01*
X036380Y003667D01*
X036380Y003353D01*
X036380Y003412D02*
X035140Y003412D01*
X035140Y003571D02*
X036380Y003571D01*
X036442Y003729D02*
X035078Y003729D01*
X034920Y003888D02*
X036600Y003888D01*
X036920Y003888D02*
X039551Y003888D01*
X039551Y003729D02*
X037078Y003729D01*
X037140Y003571D02*
X039551Y003571D01*
X039551Y003412D02*
X037140Y003412D01*
X037041Y003254D02*
X039551Y003254D01*
X039551Y003095D02*
X033099Y003095D01*
X033681Y002937D02*
X034479Y002937D01*
X034493Y002946D02*
X034428Y002899D01*
X034371Y002842D01*
X034324Y002777D01*
X034287Y002706D01*
X034263Y002629D01*
X034250Y002550D01*
X034250Y002540D01*
X034730Y002540D01*
X034730Y003020D01*
X034720Y003020D01*
X034641Y003007D01*
X034564Y002983D01*
X034493Y002946D01*
X034730Y002937D02*
X034790Y002937D01*
X034800Y003020D02*
X034790Y003020D01*
X034790Y002540D01*
X035270Y002540D01*
X035270Y002550D01*
X035257Y002629D01*
X035233Y002706D01*
X035196Y002777D01*
X035149Y002842D01*
X035092Y002899D01*
X035027Y002946D01*
X034956Y002983D01*
X034879Y003007D01*
X034800Y003020D01*
X035041Y002937D02*
X038561Y002937D01*
X038494Y002908D02*
X038667Y002980D01*
X038853Y002980D01*
X039026Y002908D01*
X039158Y002776D01*
X039230Y002603D01*
X039230Y002417D01*
X039158Y002244D01*
X039026Y002112D01*
X038853Y002040D01*
X038667Y002040D01*
X038494Y002112D01*
X038362Y002244D01*
X038290Y002417D01*
X038290Y002603D01*
X038362Y002776D01*
X038494Y002908D01*
X038959Y002937D02*
X039551Y002937D01*
X039551Y002778D02*
X039157Y002778D01*
X039223Y002620D02*
X039551Y002620D01*
X039551Y002461D02*
X039230Y002461D01*
X039183Y002303D02*
X039551Y002303D01*
X039551Y002144D02*
X039059Y002144D01*
X039549Y001986D02*
X024390Y001986D01*
X024390Y002144D02*
X031912Y002144D01*
X031931Y002125D02*
X031995Y002078D01*
X032066Y002042D01*
X032142Y002017D01*
X032220Y002005D01*
X032260Y002005D01*
X032300Y002005D01*
X032378Y002017D01*
X032454Y002042D01*
X032525Y002078D01*
X032589Y002125D01*
X032645Y002181D01*
X032692Y002245D01*
X032728Y002316D01*
X032753Y002392D01*
X032765Y002470D01*
X032765Y002510D01*
X032260Y002510D01*
X032260Y002510D01*
X032260Y002510D01*
X032260Y002005D01*
X032260Y002510D01*
X032260Y002510D01*
X032260Y002510D01*
X031755Y002510D01*
X031755Y002550D01*
X031767Y002628D01*
X031792Y002704D01*
X031828Y002775D01*
X031875Y002839D01*
X031931Y002895D01*
X031995Y002942D01*
X032066Y002978D01*
X032142Y003003D01*
X032220Y003015D01*
X032260Y003015D01*
X032260Y002510D01*
X031755Y002510D01*
X031755Y002470D01*
X031767Y002392D01*
X031792Y002316D01*
X031828Y002245D01*
X031875Y002181D01*
X031931Y002125D01*
X032260Y002144D02*
X032260Y002144D01*
X032608Y002144D02*
X032795Y002144D01*
X032795Y002303D02*
X032721Y002303D01*
X032764Y002461D02*
X032795Y002461D01*
X032260Y002461D02*
X032260Y002461D01*
X032260Y002303D02*
X032260Y002303D01*
X031799Y002303D02*
X028424Y002303D01*
X028579Y002344D02*
X028579Y002344D01*
X028782Y002461D02*
X031756Y002461D01*
X031766Y002620D02*
X028987Y002620D01*
X028893Y002525D02*
X028893Y002525D01*
X029315Y002778D02*
X031831Y002778D01*
X032260Y002778D02*
X032260Y002778D01*
X032260Y002620D02*
X032260Y002620D01*
X032260Y002937D02*
X032260Y002937D01*
X031988Y002937D02*
X029390Y002937D01*
X029390Y003095D02*
X032251Y003095D01*
X032092Y003254D02*
X029304Y003254D01*
X028716Y003254D02*
X025304Y003254D01*
X025390Y003095D02*
X028630Y003095D01*
X028551Y002937D02*
X025390Y002937D01*
X024630Y002937D02*
X024390Y002937D01*
X024390Y003095D02*
X024630Y003095D01*
X024716Y003254D02*
X024304Y003254D01*
X023716Y003254D02*
X020360Y003254D01*
X020430Y003095D02*
X023630Y003095D01*
X023630Y002937D02*
X020430Y002937D01*
X020372Y002778D02*
X023705Y002778D01*
X024315Y002778D02*
X024705Y002778D01*
X025315Y002778D02*
X028161Y002778D01*
X031775Y003571D02*
X017263Y003571D01*
X017263Y003412D02*
X019818Y003412D01*
X020010Y003412D02*
X020010Y003412D01*
X020202Y003412D02*
X031934Y003412D01*
X031617Y003729D02*
X017263Y003729D01*
X017263Y003888D02*
X027955Y003888D01*
X028565Y003888D02*
X031458Y003888D01*
X031831Y004363D02*
X032535Y004363D01*
X032376Y004522D02*
X031673Y004522D01*
X031514Y004680D02*
X032320Y004680D01*
X032320Y004839D02*
X031319Y004839D01*
X031406Y004788D02*
X031406Y004788D01*
X030985Y004997D02*
X032375Y004997D01*
X033145Y004997D02*
X033318Y004997D01*
X033280Y004839D02*
X033200Y004839D01*
X033280Y004740D02*
X033280Y004561D01*
X033561Y004280D01*
X033740Y004280D01*
X033740Y004740D01*
X033780Y004740D01*
X033780Y004780D01*
X033740Y004780D01*
X033740Y004740D01*
X033280Y004740D01*
X033280Y004680D02*
X033200Y004680D01*
X033144Y004522D02*
X033320Y004522D01*
X033478Y004363D02*
X032985Y004363D01*
X033740Y004363D02*
X033780Y004363D01*
X033780Y004280D02*
X033959Y004280D01*
X034240Y004561D01*
X034240Y004740D01*
X033780Y004740D01*
X033780Y004280D01*
X034042Y004363D02*
X034478Y004363D01*
X034561Y004280D02*
X034740Y004280D01*
X034740Y004740D01*
X034780Y004740D01*
X034780Y004780D01*
X034740Y004780D01*
X034740Y004740D01*
X034280Y004740D01*
X034280Y004561D01*
X034561Y004280D01*
X034740Y004363D02*
X034780Y004363D01*
X034780Y004280D02*
X034959Y004280D01*
X035240Y004561D01*
X035240Y004740D01*
X034780Y004740D01*
X034780Y004280D01*
X035042Y004363D02*
X035478Y004363D01*
X035561Y004280D02*
X035740Y004280D01*
X035740Y004740D01*
X035780Y004740D01*
X035780Y004780D01*
X036240Y004780D01*
X036240Y004959D01*
X035959Y005240D01*
X035780Y005240D01*
X035780Y004780D01*
X035740Y004780D01*
X035740Y004740D01*
X035280Y004740D01*
X035280Y004561D01*
X035561Y004280D01*
X035740Y004363D02*
X035780Y004363D01*
X035780Y004280D02*
X035959Y004280D01*
X036240Y004561D01*
X036240Y004740D01*
X035780Y004740D01*
X035780Y004280D01*
X036042Y004363D02*
X036535Y004363D01*
X036578Y004320D02*
X036942Y004320D01*
X037200Y004578D01*
X037200Y004942D01*
X036942Y005200D01*
X036578Y005200D01*
X036320Y004942D01*
X036320Y004578D01*
X036578Y004320D01*
X036985Y004363D02*
X039551Y004363D01*
X039551Y004522D02*
X037144Y004522D01*
X037200Y004680D02*
X039551Y004680D01*
X039551Y004839D02*
X037200Y004839D01*
X037145Y004997D02*
X039551Y004997D01*
X039551Y005156D02*
X036987Y005156D01*
X036533Y005156D02*
X036043Y005156D01*
X036202Y004997D02*
X036375Y004997D01*
X035780Y004997D02*
X035740Y004997D01*
X035740Y005156D02*
X035780Y005156D01*
X035318Y004997D02*
X035202Y004997D01*
X035240Y004839D02*
X035280Y004839D01*
X035280Y004680D02*
X035240Y004680D01*
X034780Y004680D02*
X034740Y004680D01*
X034740Y004839D02*
X034780Y004839D01*
X034280Y004839D02*
X034240Y004839D01*
X034240Y004680D02*
X034280Y004680D01*
X033780Y004680D02*
X033740Y004680D01*
X033740Y004839D02*
X033780Y004839D01*
X034202Y004997D02*
X034318Y004997D01*
X033527Y005314D02*
X023315Y005314D01*
X022710Y005314D02*
X022300Y005314D01*
X022184Y005430D02*
X022010Y005430D01*
X022010Y005010D01*
X022010Y005010D01*
X022430Y005010D01*
X022430Y005184D01*
X022184Y005430D01*
X022010Y005430D02*
X021836Y005430D01*
X021590Y005184D01*
X021590Y005010D01*
X022010Y005010D01*
X022010Y005010D01*
X022010Y005010D01*
X022010Y005430D01*
X022010Y005314D02*
X022010Y005314D01*
X021720Y005314D02*
X014224Y005314D01*
X014224Y005455D02*
X013949Y005730D01*
X013559Y005730D01*
X013284Y005455D01*
X013284Y005065D01*
X013494Y004855D01*
X013494Y004680D01*
X010560Y004680D01*
X010593Y004839D02*
X013494Y004839D01*
X013494Y004680D02*
X013284Y004470D01*
X013284Y004081D01*
X013559Y003806D01*
X013949Y003806D01*
X014224Y004081D01*
X014224Y004470D01*
X014014Y004680D01*
X014014Y004855D01*
X014224Y005065D01*
X014224Y005455D01*
X014206Y005473D02*
X022722Y005473D01*
X022788Y005631D02*
X014048Y005631D01*
X014157Y005790D02*
X015215Y005790D01*
X014918Y005948D02*
X014224Y005948D01*
X014224Y006107D02*
X014739Y006107D01*
X014581Y006265D02*
X014224Y006265D01*
X014224Y006424D02*
X014422Y006424D01*
X014264Y006582D02*
X014224Y006582D01*
X014102Y006741D02*
X010318Y006741D01*
X010344Y006899D02*
X012084Y006899D01*
X012436Y006899D02*
X013855Y006899D01*
X014637Y007058D02*
X015757Y007058D01*
X015757Y007216D02*
X014478Y007216D01*
X014507Y007187D02*
X014507Y007187D01*
X014418Y007277D02*
X014418Y007277D01*
X014248Y007375D02*
X015757Y007375D01*
X015757Y007533D02*
X013834Y007533D01*
X014094Y007463D02*
X014094Y007463D01*
X015757Y007692D02*
X010669Y007692D01*
X010563Y007533D02*
X011996Y007533D01*
X011880Y007375D02*
X010488Y007375D01*
X010422Y007216D02*
X011880Y007216D01*
X011925Y007058D02*
X010376Y007058D01*
X009829Y007375D02*
X009790Y007375D01*
X009894Y007533D02*
X009555Y007533D01*
X009960Y007692D02*
X000945Y007692D01*
X000945Y007533D02*
X002078Y007533D01*
X002085Y007534D02*
X001996Y007520D01*
X001910Y007492D01*
X001829Y007451D01*
X001756Y007398D01*
X001692Y007334D01*
X001639Y007261D01*
X001598Y007181D01*
X001571Y007095D01*
X001556Y007006D01*
X001556Y006960D01*
X001556Y006915D01*
X001571Y006826D01*
X001598Y006740D01*
X001639Y006660D01*
X001692Y006587D01*
X001756Y006523D01*
X001829Y006470D01*
X001910Y006429D01*
X001996Y006401D01*
X002085Y006387D01*
X002524Y006387D01*
X002963Y006387D01*
X003052Y006401D01*
X003138Y006429D01*
X003218Y006470D01*
X003291Y006523D01*
X003355Y006587D01*
X003408Y006660D01*
X003449Y006740D01*
X003477Y006826D01*
X003491Y006915D01*
X003491Y006960D01*
X002524Y006960D01*
X002524Y006387D01*
X002524Y006960D01*
X002524Y006960D01*
X002524Y006960D01*
X003491Y006960D01*
X003491Y007006D01*
X003477Y007095D01*
X003449Y007181D01*
X003408Y007261D01*
X003355Y007334D01*
X003291Y007398D01*
X003218Y007451D01*
X003138Y007492D01*
X003052Y007520D01*
X002963Y007534D01*
X002524Y007534D01*
X002524Y006960D01*
X001556Y006960D01*
X002524Y006960D01*
X002524Y006960D01*
X002524Y006960D01*
X002524Y007534D01*
X002085Y007534D01*
X002524Y007533D02*
X002524Y007533D01*
X002969Y007533D02*
X008438Y007533D01*
X008996Y007533D02*
X008996Y007533D01*
X008996Y007564D02*
X008996Y007010D01*
X008996Y007010D01*
X008996Y007564D01*
X008996Y007375D02*
X008996Y007375D01*
X008996Y007216D02*
X008996Y007216D01*
X008996Y007058D02*
X008996Y007058D01*
X008996Y006899D02*
X008996Y006899D01*
X008996Y006741D02*
X008996Y006741D01*
X008996Y006582D02*
X008996Y006582D01*
X008269Y006582D02*
X003350Y006582D01*
X003122Y006424D02*
X009710Y006424D01*
X009710Y006265D02*
X000945Y006265D01*
X000945Y006107D02*
X001159Y006107D01*
X001005Y005948D02*
X000945Y005948D01*
X001762Y006107D02*
X004248Y006107D01*
X004851Y006107D02*
X006669Y006107D01*
X006668Y006106D02*
X006518Y005956D01*
X006437Y005760D01*
X006437Y004760D01*
X006518Y004564D01*
X006668Y004414D01*
X006864Y004333D01*
X007076Y004333D01*
X007273Y004414D01*
X007423Y004564D01*
X007504Y004760D01*
X007504Y005760D01*
X007423Y005956D01*
X007273Y006106D01*
X007076Y006187D01*
X006864Y006187D01*
X006668Y006106D01*
X007272Y006107D02*
X009710Y006107D01*
X009603Y005948D02*
X007426Y005948D01*
X007492Y005790D02*
X009538Y005790D01*
X009526Y005631D02*
X007504Y005631D01*
X007504Y005473D02*
X009526Y005473D01*
X009526Y005314D02*
X007504Y005314D01*
X007504Y005156D02*
X009526Y005156D01*
X009526Y004997D02*
X007504Y004997D01*
X007504Y004839D02*
X009526Y004839D01*
X009559Y004680D02*
X007471Y004680D01*
X007380Y004522D02*
X009649Y004522D01*
X009880Y004363D02*
X007150Y004363D01*
X006791Y004363D02*
X004870Y004363D01*
X004960Y004522D02*
X006560Y004522D01*
X006470Y004680D02*
X005050Y004680D01*
X005083Y004839D02*
X006437Y004839D01*
X006437Y004997D02*
X005083Y004997D01*
X005083Y005156D02*
X006437Y005156D01*
X006437Y005314D02*
X005083Y005314D01*
X005083Y005473D02*
X006437Y005473D01*
X006437Y005631D02*
X005083Y005631D01*
X005071Y005790D02*
X006449Y005790D01*
X006514Y005948D02*
X005006Y005948D01*
X004094Y005948D02*
X001917Y005948D01*
X001982Y005790D02*
X004028Y005790D01*
X004016Y005631D02*
X001994Y005631D01*
X001994Y005473D02*
X004016Y005473D01*
X004016Y005314D02*
X001994Y005314D01*
X001994Y005156D02*
X004016Y005156D01*
X004016Y004997D02*
X001994Y004997D01*
X001994Y004839D02*
X004016Y004839D01*
X004049Y004680D02*
X001961Y004680D01*
X001871Y004522D02*
X004140Y004522D01*
X004350Y004363D02*
X001640Y004363D01*
X001281Y004363D02*
X000945Y004363D01*
X000945Y004522D02*
X001051Y004522D01*
X000960Y004680D02*
X000945Y004680D01*
X000945Y004205D02*
X004350Y004205D01*
X004350Y004046D02*
X003040Y004046D01*
X003028Y004050D02*
X002941Y004064D01*
X002524Y004064D01*
X002524Y003510D01*
X002524Y003510D01*
X003452Y003510D01*
X003452Y003553D01*
X003438Y003639D01*
X003411Y003722D01*
X003372Y003800D01*
X003320Y003871D01*
X003259Y003932D01*
X003188Y003983D01*
X003110Y004023D01*
X003028Y004050D01*
X002524Y004046D02*
X002524Y004046D01*
X002524Y004064D02*
X002106Y004064D01*
X002020Y004050D01*
X001937Y004023D01*
X001859Y003983D01*
X001789Y003932D01*
X001727Y003871D01*
X001676Y003800D01*
X001636Y003722D01*
X001609Y003639D01*
X001596Y003553D01*
X001596Y003510D01*
X002524Y003510D01*
X002524Y003510D01*
X002524Y004064D01*
X002524Y003888D02*
X002524Y003888D01*
X002524Y003729D02*
X002524Y003729D01*
X002524Y003571D02*
X002524Y003571D01*
X002524Y003510D02*
X002524Y003510D01*
X003452Y003510D01*
X003452Y003466D01*
X003438Y003380D01*
X003411Y003297D01*
X003372Y003219D01*
X003320Y003149D01*
X003259Y003087D01*
X003188Y003036D01*
X003110Y002996D01*
X003028Y002969D01*
X002941Y002956D01*
X002524Y002956D01*
X002524Y003510D01*
X002524Y003510D01*
X001596Y003510D01*
X001596Y003466D01*
X001609Y003380D01*
X001636Y003297D01*
X001676Y003219D01*
X001727Y003149D01*
X001789Y003087D01*
X001859Y003036D01*
X001937Y002996D01*
X002020Y002969D01*
X002106Y002956D01*
X002524Y002956D01*
X002524Y003510D01*
X002524Y003412D02*
X002524Y003412D01*
X002524Y003254D02*
X002524Y003254D01*
X002524Y003095D02*
X002524Y003095D01*
X003267Y003095D02*
X004677Y003095D01*
X004735Y002995D02*
X004735Y002995D01*
X004793Y002937D02*
X000945Y002937D01*
X000945Y003095D02*
X001781Y003095D01*
X001658Y003254D02*
X000945Y003254D01*
X000945Y003412D02*
X001604Y003412D01*
X001598Y003571D02*
X000945Y003571D01*
X000945Y003729D02*
X001640Y003729D01*
X001744Y003888D02*
X000945Y003888D01*
X000945Y004046D02*
X002008Y004046D01*
X003303Y003888D02*
X004360Y003888D01*
X004402Y003729D02*
X003408Y003729D01*
X003449Y003571D02*
X004445Y003571D01*
X004481Y003434D02*
X004481Y003434D01*
X004494Y003412D02*
X003443Y003412D01*
X003389Y003254D02*
X004586Y003254D01*
X005229Y003254D02*
X008116Y003254D01*
X008112Y003259D02*
X008165Y003186D01*
X008229Y003122D01*
X008302Y003069D01*
X008382Y003028D01*
X008468Y003000D01*
X008557Y002986D01*
X008996Y002986D01*
X008996Y003560D01*
X008996Y004133D01*
X008557Y004133D01*
X008468Y004119D01*
X008382Y004091D01*
X008302Y004050D01*
X008229Y003997D01*
X008165Y003933D01*
X008112Y003860D01*
X008071Y003780D01*
X008043Y003694D01*
X008029Y003605D01*
X008029Y003560D01*
X008996Y003560D01*
X008996Y003560D01*
X008996Y003560D01*
X008996Y004133D01*
X009435Y004133D01*
X009524Y004119D01*
X009610Y004091D01*
X009691Y004050D01*
X009764Y003997D01*
X009828Y003933D01*
X009881Y003860D01*
X009922Y003780D01*
X009949Y003694D01*
X009964Y003605D01*
X009964Y003560D01*
X008996Y003560D01*
X008029Y003560D01*
X008029Y003514D01*
X008043Y003425D01*
X008071Y003339D01*
X008112Y003259D01*
X008266Y003095D02*
X005387Y003095D01*
X005637Y002937D02*
X011990Y002937D01*
X012086Y002840D02*
X011840Y003086D01*
X011840Y003260D01*
X012260Y003260D01*
X012260Y003260D01*
X012260Y003680D01*
X012434Y003680D01*
X012680Y003434D01*
X012680Y003260D01*
X012260Y003260D01*
X012260Y003260D01*
X012260Y003260D01*
X012260Y003680D01*
X012086Y003680D01*
X011840Y003434D01*
X011840Y003260D01*
X012260Y003260D01*
X012680Y003260D01*
X012680Y003086D01*
X012434Y002840D01*
X012260Y002840D01*
X012260Y003260D01*
X012260Y003260D01*
X012260Y002840D01*
X012086Y002840D01*
X012260Y002937D02*
X012260Y002937D01*
X012530Y002937D02*
X015757Y002937D01*
X015757Y003095D02*
X012680Y003095D01*
X012680Y003254D02*
X015757Y003254D01*
X015757Y003412D02*
X012680Y003412D01*
X012543Y003571D02*
X015757Y003571D01*
X015757Y003729D02*
X009938Y003729D01*
X009861Y003888D02*
X013478Y003888D01*
X013319Y004046D02*
X009696Y004046D01*
X008996Y004046D02*
X008996Y004046D01*
X008296Y004046D02*
X004879Y004046D01*
X004870Y004205D02*
X013284Y004205D01*
X013284Y004363D02*
X010239Y004363D01*
X010469Y004522D02*
X013335Y004522D01*
X014015Y004680D02*
X019090Y004680D01*
X019090Y004684D02*
X019090Y004510D01*
X019510Y004510D01*
X019510Y004510D01*
X019510Y004930D01*
X019684Y004930D01*
X019930Y004684D01*
X019930Y004510D01*
X019510Y004510D01*
X019510Y004510D01*
X019510Y004510D01*
X019510Y004930D01*
X019336Y004930D01*
X019090Y004684D01*
X019245Y004839D02*
X014014Y004839D01*
X014156Y004997D02*
X021590Y004997D01*
X021590Y005010D02*
X021590Y004836D01*
X021836Y004590D01*
X022010Y004590D01*
X022184Y004590D01*
X022430Y004836D01*
X022430Y005010D01*
X022010Y005010D01*
X022010Y004590D01*
X022010Y005010D01*
X022010Y005010D01*
X021590Y005010D01*
X021590Y005156D02*
X014224Y005156D01*
X013352Y004997D02*
X010593Y004997D01*
X010593Y005156D02*
X013284Y005156D01*
X013284Y005314D02*
X010593Y005314D01*
X010593Y005473D02*
X013302Y005473D01*
X013460Y005631D02*
X010593Y005631D01*
X010581Y005790D02*
X013351Y005790D01*
X013284Y005948D02*
X010515Y005948D01*
X010361Y006107D02*
X013284Y006107D01*
X013284Y006265D02*
X010310Y006265D01*
X010310Y006424D02*
X013284Y006424D01*
X013284Y006582D02*
X010310Y006582D01*
X008138Y006741D02*
X003449Y006741D01*
X003489Y006899D02*
X008079Y006899D01*
X008069Y007058D02*
X003483Y007058D01*
X003431Y007216D02*
X008106Y007216D01*
X008203Y007375D02*
X003315Y007375D01*
X002524Y007375D02*
X002524Y007375D01*
X002524Y007216D02*
X002524Y007216D01*
X002524Y007058D02*
X002524Y007058D01*
X002524Y006899D02*
X002524Y006899D01*
X002524Y006741D02*
X002524Y006741D01*
X002524Y006582D02*
X002524Y006582D01*
X002524Y006424D02*
X002524Y006424D01*
X001926Y006424D02*
X000945Y006424D01*
X000945Y006582D02*
X001697Y006582D01*
X001598Y006741D02*
X000945Y006741D01*
X000945Y006899D02*
X001559Y006899D01*
X001565Y007058D02*
X000945Y007058D01*
X000945Y007216D02*
X001616Y007216D01*
X001733Y007375D02*
X000945Y007375D01*
X000945Y007850D02*
X006174Y007850D01*
X006172Y007850D02*
X006237Y007840D01*
X006510Y007840D01*
X006783Y007840D01*
X006848Y007850D01*
X006911Y007871D01*
X006970Y007901D01*
X007024Y007940D01*
X007070Y007986D01*
X007109Y008040D01*
X007139Y008099D01*
X007160Y008162D01*
X007170Y008227D01*
X007170Y008260D01*
X007170Y008293D01*
X007160Y008358D01*
X007139Y008421D01*
X007109Y008480D01*
X007070Y008534D01*
X007024Y008580D01*
X006970Y008619D01*
X006911Y008649D01*
X006848Y008670D01*
X006783Y008680D01*
X006510Y008680D01*
X006510Y008260D01*
X006510Y008260D01*
X007170Y008260D01*
X006510Y008260D01*
X006510Y008260D01*
X006510Y008680D01*
X006237Y008680D01*
X006172Y008670D01*
X006109Y008649D01*
X006050Y008619D01*
X005996Y008580D01*
X005950Y008534D01*
X005911Y008480D01*
X005881Y008421D01*
X005860Y008358D01*
X005850Y008293D01*
X005850Y008260D01*
X006510Y008260D01*
X006510Y007840D01*
X006510Y008260D01*
X006510Y008260D01*
X006510Y008260D01*
X005850Y008260D01*
X005850Y008227D01*
X005860Y008162D01*
X005881Y008099D01*
X005911Y008040D01*
X005950Y007986D01*
X005996Y007940D01*
X006050Y007901D01*
X006109Y007871D01*
X006172Y007850D01*
X005934Y008009D02*
X000945Y008009D01*
X000945Y008167D02*
X005859Y008167D01*
X005855Y008326D02*
X000945Y008326D01*
X000945Y008484D02*
X005914Y008484D01*
X006096Y008643D02*
X000982Y008643D01*
X001197Y008801D02*
X011270Y008801D01*
X010927Y008709D02*
X010927Y008709D01*
X010812Y008643D02*
X006924Y008643D01*
X007106Y008484D02*
X008957Y008484D01*
X008948Y008475D02*
X008890Y008336D01*
X008890Y008184D01*
X008948Y008045D01*
X009055Y007938D01*
X009194Y007880D01*
X009826Y007880D01*
X009965Y007938D01*
X010072Y008045D01*
X010130Y008184D01*
X010130Y008336D01*
X010072Y008475D01*
X009965Y008582D01*
X009826Y008640D01*
X009194Y008640D01*
X009055Y008582D01*
X008948Y008475D01*
X008890Y008326D02*
X007165Y008326D01*
X007161Y008167D02*
X008897Y008167D01*
X008984Y008009D02*
X007086Y008009D01*
X006846Y007850D02*
X010042Y007850D01*
X010036Y008009D02*
X010148Y008009D01*
X010123Y008167D02*
X010254Y008167D01*
X010276Y008200D02*
X010276Y008200D01*
X010401Y008326D02*
X010130Y008326D01*
X010495Y008419D02*
X010495Y008419D01*
X010560Y008484D02*
X010063Y008484D01*
X010590Y008515D02*
X010590Y008515D01*
X011251Y008167D02*
X017996Y008167D01*
X018326Y008009D02*
X010941Y008009D01*
X010877Y007953D02*
X010877Y007953D01*
X010877Y007953D01*
X010784Y007850D02*
X018496Y007850D01*
X018633Y007713D02*
X018633Y007713D01*
X018654Y007692D02*
X017263Y007692D01*
X017263Y007533D02*
X018907Y007533D01*
X018914Y007529D02*
X018914Y007529D01*
X018685Y007661D02*
X018685Y007661D01*
X017263Y007375D02*
X021837Y007375D01*
X021853Y007390D02*
X021630Y007167D01*
X021630Y006853D01*
X021853Y006630D01*
X022167Y006630D01*
X022390Y006853D01*
X022390Y007167D01*
X022167Y007390D01*
X021853Y007390D01*
X022183Y007375D02*
X022663Y007375D01*
X023357Y007375D02*
X023663Y007375D01*
X023663Y007533D02*
X023357Y007533D01*
X023366Y007692D02*
X023663Y007692D01*
X023690Y007850D02*
X023524Y007850D01*
X022812Y008009D02*
X021707Y008009D01*
X021540Y007850D02*
X022690Y007850D01*
X022663Y007692D02*
X021373Y007692D01*
X021367Y007685D02*
X021367Y007685D01*
X021085Y007533D02*
X022663Y007533D01*
X022671Y007216D02*
X022341Y007216D01*
X022390Y007058D02*
X022765Y007058D01*
X023254Y007058D02*
X023371Y007058D01*
X023349Y007216D02*
X023542Y007216D01*
X024254Y007058D02*
X024765Y007058D01*
X024671Y007216D02*
X024349Y007216D01*
X024357Y007375D02*
X024663Y007375D01*
X025357Y007375D02*
X025663Y007375D01*
X025663Y007533D02*
X025357Y007533D01*
X025357Y007692D02*
X025663Y007692D01*
X025690Y007850D02*
X025330Y007850D01*
X024690Y007850D02*
X024330Y007850D01*
X024357Y007692D02*
X024663Y007692D01*
X024663Y007533D02*
X024357Y007533D01*
X025349Y007216D02*
X025671Y007216D01*
X025710Y007058D02*
X025254Y007058D01*
X025710Y006899D02*
X024073Y006899D01*
X023969Y006795D02*
X023969Y006795D01*
X023915Y006741D02*
X025710Y006741D01*
X025664Y006588D02*
X025664Y006588D01*
X025657Y006582D02*
X023756Y006582D01*
X023679Y006505D02*
X023679Y006505D01*
X023557Y006424D02*
X025427Y006424D01*
X026258Y006424D02*
X026753Y006424D01*
X026594Y006582D02*
X026310Y006582D01*
X027010Y006582D02*
X027010Y006582D01*
X027010Y006424D02*
X027010Y006424D01*
X026590Y006741D02*
X026310Y006741D01*
X026310Y006899D02*
X026590Y006899D01*
X023885Y006710D02*
X023885Y006710D01*
X023163Y006899D02*
X022390Y006899D01*
X022278Y006741D02*
X022926Y006741D01*
X022618Y006582D02*
X017263Y006582D01*
X017263Y006424D02*
X022199Y006424D01*
X023320Y006265D02*
X023619Y006265D01*
X023426Y006213D02*
X023426Y006213D01*
X023241Y006107D02*
X023075Y006107D01*
X023096Y006115D02*
X023096Y006115D01*
X023024Y005948D02*
X022692Y005948D01*
X022865Y005790D02*
X022160Y005790D01*
X022845Y005770D02*
X022845Y005770D01*
X022928Y005852D02*
X022928Y005852D01*
X023631Y005631D02*
X032320Y005631D01*
X032425Y005473D02*
X023397Y005473D01*
X023475Y005541D02*
X023475Y005541D01*
X022710Y005156D02*
X022430Y005156D01*
X022430Y004997D02*
X022710Y004997D01*
X022685Y004839D02*
X022430Y004839D01*
X022274Y004680D02*
X022663Y004680D01*
X023335Y004839D02*
X023685Y004839D01*
X023663Y004680D02*
X023357Y004680D01*
X023357Y004522D02*
X023663Y004522D01*
X023663Y004363D02*
X023357Y004363D01*
X022663Y004363D02*
X020890Y004363D01*
X020890Y004353D02*
X020667Y004130D01*
X020353Y004130D01*
X020130Y004353D01*
X020130Y004667D01*
X020353Y004890D01*
X020667Y004890D01*
X020890Y004667D01*
X020890Y004353D01*
X020890Y004522D02*
X022663Y004522D01*
X022010Y004680D02*
X022010Y004680D01*
X022010Y004839D02*
X022010Y004839D01*
X021746Y004680D02*
X020877Y004680D01*
X020719Y004839D02*
X021590Y004839D01*
X022010Y004997D02*
X022010Y004997D01*
X022010Y005156D02*
X022010Y005156D01*
X020301Y004839D02*
X019775Y004839D01*
X019930Y004680D02*
X020143Y004680D01*
X020130Y004522D02*
X019930Y004522D01*
X019930Y004510D02*
X019510Y004510D01*
X019510Y004090D01*
X019684Y004090D01*
X019930Y004336D01*
X019930Y004510D01*
X019930Y004363D02*
X020130Y004363D01*
X020278Y004205D02*
X019798Y004205D01*
X019510Y004205D02*
X019510Y004205D01*
X019510Y004090D02*
X019510Y004510D01*
X019510Y004510D01*
X019090Y004510D01*
X019090Y004336D01*
X019336Y004090D01*
X019510Y004090D01*
X019222Y004205D02*
X017219Y004205D01*
X017263Y004046D02*
X022777Y004046D01*
X022676Y004205D02*
X020742Y004205D01*
X019510Y004363D02*
X019510Y004363D01*
X019510Y004522D02*
X019510Y004522D01*
X019090Y004522D02*
X014173Y004522D01*
X014224Y004363D02*
X019090Y004363D01*
X019510Y004680D02*
X019510Y004680D01*
X019510Y004839D02*
X019510Y004839D01*
X015801Y004205D02*
X014224Y004205D01*
X014189Y004046D02*
X015757Y004046D01*
X015757Y003888D02*
X014031Y003888D01*
X012260Y003571D02*
X012260Y003571D01*
X012260Y003412D02*
X012260Y003412D01*
X011977Y003571D02*
X009964Y003571D01*
X009964Y003560D02*
X008996Y003560D01*
X008996Y003560D01*
X008996Y003560D01*
X008996Y002986D01*
X009435Y002986D01*
X009524Y003000D01*
X009610Y003028D01*
X009691Y003069D01*
X009764Y003122D01*
X009828Y003186D01*
X009881Y003259D01*
X009922Y003339D01*
X009949Y003425D01*
X009964Y003514D01*
X009964Y003560D01*
X009945Y003412D02*
X011840Y003412D01*
X011840Y003254D02*
X009877Y003254D01*
X009726Y003095D02*
X011840Y003095D01*
X012260Y003095D02*
X012260Y003095D01*
X012260Y003254D02*
X012260Y003254D01*
X008996Y003254D02*
X008996Y003254D01*
X008996Y003095D02*
X008996Y003095D01*
X008996Y003412D02*
X008996Y003412D01*
X008996Y003571D02*
X008996Y003571D01*
X008996Y003729D02*
X008996Y003729D01*
X008996Y003888D02*
X008996Y003888D01*
X008132Y003888D02*
X004911Y003888D01*
X004953Y003729D02*
X008054Y003729D01*
X008029Y003571D02*
X005017Y003571D01*
X005109Y003412D02*
X008047Y003412D01*
X006157Y002778D02*
X015796Y002778D01*
X017224Y002778D02*
X019648Y002778D01*
X019590Y002937D02*
X017263Y002937D01*
X017263Y003095D02*
X019590Y003095D01*
X019660Y003254D02*
X017263Y003254D01*
X020010Y003254D02*
X020010Y003254D01*
X020010Y003095D02*
X020010Y003095D01*
X023243Y004046D02*
X023777Y004046D01*
X023676Y004205D02*
X023344Y004205D01*
X024243Y004046D02*
X024777Y004046D01*
X024676Y004205D02*
X024344Y004205D01*
X024357Y004363D02*
X024663Y004363D01*
X024663Y004522D02*
X024357Y004522D01*
X024357Y004680D02*
X024663Y004680D01*
X024685Y004839D02*
X024335Y004839D01*
X025493Y005790D02*
X032320Y005790D01*
X032326Y005948D02*
X025820Y005948D01*
X025944Y006020D02*
X025944Y006020D01*
X025591Y005816D02*
X025591Y005816D01*
X021742Y006741D02*
X017263Y006741D01*
X017263Y006899D02*
X021630Y006899D01*
X021630Y007058D02*
X017263Y007058D01*
X017263Y007216D02*
X021679Y007216D01*
X021874Y008167D02*
X022993Y008167D01*
X023151Y008326D02*
X022091Y008326D01*
X015757Y006899D02*
X014795Y006899D01*
X014954Y006741D02*
X015757Y006741D01*
X015757Y006582D02*
X015112Y006582D01*
X015307Y006424D02*
X015757Y006424D01*
X014870Y005976D02*
X014870Y005976D01*
X006510Y007850D02*
X006510Y007850D01*
X006510Y008009D02*
X006510Y008009D01*
X006510Y008167D02*
X006510Y008167D01*
X006510Y008326D02*
X006510Y008326D01*
X006510Y008484D02*
X006510Y008484D01*
X006510Y008643D02*
X006510Y008643D01*
X004952Y002778D02*
X000945Y002778D01*
X000945Y002620D02*
X005122Y002620D01*
X005095Y002635D02*
X005095Y002635D01*
X005397Y002461D02*
X000945Y002461D01*
X000945Y002303D02*
X005829Y002303D01*
X005534Y002381D02*
X005534Y002381D01*
X001006Y001827D02*
X019656Y001827D01*
X019630Y001986D02*
X000947Y001986D01*
X000945Y002144D02*
X019630Y002144D01*
X024364Y001827D02*
X039490Y001827D01*
X038461Y002144D02*
X035115Y002144D01*
X035092Y002121D02*
X035149Y002178D01*
X035196Y002243D01*
X035233Y002314D01*
X035257Y002391D01*
X035270Y002470D01*
X035270Y002480D01*
X034790Y002480D01*
X034790Y002540D01*
X034730Y002540D01*
X034730Y002480D01*
X034790Y002480D01*
X034790Y002000D01*
X034800Y002000D01*
X034879Y002013D01*
X034956Y002037D01*
X035027Y002074D01*
X035092Y002121D01*
X034790Y002144D02*
X034730Y002144D01*
X034730Y002000D02*
X034730Y002480D01*
X034250Y002480D01*
X034250Y002470D01*
X034263Y002391D01*
X034287Y002314D01*
X034324Y002243D01*
X034371Y002178D01*
X034428Y002121D01*
X034493Y002074D01*
X034564Y002037D01*
X034641Y002013D01*
X034720Y002000D01*
X034730Y002000D01*
X034405Y002144D02*
X033725Y002144D01*
X033725Y002303D02*
X034293Y002303D01*
X034251Y002461D02*
X033725Y002461D01*
X033725Y002620D02*
X034261Y002620D01*
X034324Y002778D02*
X033725Y002778D01*
X034730Y002778D02*
X034790Y002778D01*
X034790Y002620D02*
X034730Y002620D01*
X035196Y002778D02*
X038363Y002778D01*
X038297Y002620D02*
X035259Y002620D01*
X035269Y002461D02*
X038290Y002461D01*
X038337Y002303D02*
X035227Y002303D01*
X034790Y002303D02*
X034730Y002303D01*
X034730Y002461D02*
X034790Y002461D01*
X034740Y004522D02*
X034780Y004522D01*
X035200Y004522D02*
X035320Y004522D01*
X035740Y004522D02*
X035780Y004522D01*
X036200Y004522D02*
X036376Y004522D01*
X036320Y004680D02*
X036240Y004680D01*
X036240Y004839D02*
X036320Y004839D01*
X035780Y004839D02*
X035740Y004839D01*
X035740Y004680D02*
X035780Y004680D01*
X034320Y004522D02*
X034200Y004522D01*
X033780Y004522D02*
X033740Y004522D01*
X035740Y005314D02*
X035780Y005314D01*
X035993Y005314D02*
X039551Y005314D01*
X039551Y005473D02*
X037095Y005473D01*
X037200Y005631D02*
X039551Y005631D01*
X039551Y005790D02*
X037200Y005790D01*
X037194Y005948D02*
X039551Y005948D01*
X039551Y006741D02*
X037028Y006741D01*
X037140Y006899D02*
X039551Y006899D01*
X039551Y007058D02*
X037140Y007058D01*
X037091Y007216D02*
X039551Y007216D01*
X036326Y005948D02*
X036240Y005948D01*
X036240Y005790D02*
X036320Y005790D01*
X035780Y005790D02*
X035740Y005790D01*
X035740Y005948D02*
X035780Y005948D01*
X035780Y005631D02*
X035740Y005631D01*
X035740Y005473D02*
X035780Y005473D01*
X036151Y005473D02*
X036425Y005473D01*
X036320Y005631D02*
X036240Y005631D01*
D27*
X032137Y006760D02*
X030366Y006760D01*
X030004Y006910D02*
X028856Y008058D01*
X028368Y008260D02*
X023656Y008260D01*
X023406Y008156D02*
X023083Y007833D01*
X023010Y007656D02*
X023010Y007510D01*
X023010Y007656D02*
X023012Y007684D01*
X023016Y007712D01*
X023024Y007739D01*
X023035Y007764D01*
X023048Y007789D01*
X023065Y007812D01*
X023083Y007833D01*
X023406Y008156D02*
X023431Y008180D01*
X023459Y008200D01*
X023489Y008218D01*
X023521Y008233D01*
X023553Y008245D01*
X023587Y008253D01*
X023621Y008258D01*
X023656Y008260D01*
X022420Y008710D02*
X030060Y008710D01*
X030260Y008510D01*
X032137Y006760D02*
X032196Y006762D01*
X032255Y006768D01*
X032313Y006777D01*
X032370Y006791D01*
X032427Y006808D01*
X032482Y006829D01*
X032536Y006853D01*
X032588Y006881D01*
X032638Y006912D01*
X032685Y006946D01*
X032731Y006984D01*
X032774Y007024D01*
X033510Y007760D01*
X030366Y006760D02*
X030321Y006762D01*
X030277Y006768D01*
X030234Y006777D01*
X030191Y006791D01*
X030150Y006808D01*
X030111Y006828D01*
X030073Y006852D01*
X030038Y006880D01*
X030005Y006910D01*
X028857Y008058D02*
X028821Y008091D01*
X028782Y008122D01*
X028742Y008150D01*
X028699Y008175D01*
X028655Y008198D01*
X028609Y008216D01*
X028563Y008232D01*
X028515Y008244D01*
X028466Y008253D01*
X028417Y008258D01*
X028368Y008260D01*
X026010Y007510D02*
X026010Y006699D01*
X026008Y006659D01*
X026003Y006620D01*
X025994Y006581D01*
X025982Y006543D01*
X025967Y006506D01*
X025949Y006471D01*
X025927Y006437D01*
X025903Y006405D01*
X025876Y006376D01*
X024992Y006010D02*
X023973Y006010D01*
X021410Y006010D02*
X015687Y006010D01*
X014958Y006312D02*
X014337Y006933D01*
X013547Y007260D02*
X012260Y007260D01*
X011498Y008510D02*
X011432Y008508D01*
X011366Y008503D01*
X011301Y008493D01*
X011236Y008480D01*
X011172Y008464D01*
X011109Y008444D01*
X011047Y008420D01*
X010987Y008393D01*
X010928Y008363D01*
X010871Y008329D01*
X010816Y008293D01*
X010764Y008253D01*
X010713Y008210D01*
X010665Y008165D01*
X011498Y008510D02*
X017742Y008510D01*
X018626Y008144D02*
X018803Y007967D01*
X019303Y007760D02*
X020650Y007760D01*
X021271Y008008D02*
X021713Y008428D01*
X021271Y008008D02*
X021228Y007970D01*
X021183Y007935D01*
X021136Y007902D01*
X021087Y007873D01*
X021036Y007847D01*
X020984Y007824D01*
X020930Y007805D01*
X020876Y007789D01*
X020820Y007776D01*
X020764Y007767D01*
X020707Y007762D01*
X020650Y007760D01*
X021713Y008428D02*
X021758Y008468D01*
X021805Y008505D01*
X021854Y008540D01*
X021905Y008571D01*
X021958Y008600D01*
X022012Y008625D01*
X022068Y008648D01*
X022124Y008667D01*
X022182Y008682D01*
X022241Y008694D01*
X022300Y008703D01*
X022360Y008708D01*
X022420Y008710D01*
X023715Y006965D02*
X023635Y006887D01*
X023552Y006813D01*
X023467Y006741D01*
X023380Y006672D01*
X023290Y006607D01*
X023198Y006544D01*
X023104Y006485D01*
X023008Y006428D01*
X022910Y006375D01*
X022810Y006326D01*
X022709Y006280D01*
X022606Y006237D01*
X022502Y006198D01*
X022396Y006163D01*
X022290Y006131D01*
X022182Y006103D01*
X022073Y006078D01*
X021964Y006057D01*
X021854Y006040D01*
X021743Y006027D01*
X021632Y006018D01*
X021521Y006012D01*
X021410Y006010D01*
X023010Y005266D02*
X023010Y004510D01*
X023182Y005683D02*
X023228Y005726D01*
X023276Y005766D01*
X023326Y005804D01*
X023378Y005839D01*
X023432Y005870D01*
X023488Y005899D01*
X023545Y005925D01*
X023604Y005947D01*
X023663Y005966D01*
X023724Y005982D01*
X023786Y005994D01*
X023848Y006003D01*
X023910Y006008D01*
X023973Y006010D01*
X023183Y005682D02*
X023151Y005649D01*
X023122Y005612D01*
X023097Y005574D01*
X023074Y005533D01*
X023055Y005491D01*
X023039Y005448D01*
X023026Y005403D01*
X023017Y005358D01*
X023012Y005312D01*
X023010Y005266D01*
X026010Y004510D02*
X026760Y004510D01*
X027010Y004760D01*
X028260Y004760D01*
X030571Y004760D01*
X031321Y004449D02*
X033260Y002510D01*
X031321Y004449D02*
X031275Y004493D01*
X031225Y004534D01*
X031174Y004572D01*
X031120Y004607D01*
X031064Y004638D01*
X031006Y004667D01*
X030947Y004691D01*
X030887Y004712D01*
X030825Y004729D01*
X030762Y004743D01*
X030699Y004752D01*
X030635Y004758D01*
X030571Y004760D01*
X024010Y007260D02*
X023715Y006965D01*
X024010Y007260D02*
X024010Y007510D01*
X024992Y006010D02*
X025057Y006012D01*
X025123Y006017D01*
X025188Y006025D01*
X025252Y006037D01*
X025316Y006053D01*
X025378Y006071D01*
X025440Y006093D01*
X025500Y006118D01*
X025559Y006146D01*
X025617Y006177D01*
X025673Y006212D01*
X025727Y006249D01*
X025779Y006289D01*
X025828Y006331D01*
X025876Y006376D01*
X018626Y008144D02*
X018578Y008189D01*
X018529Y008231D01*
X018477Y008271D01*
X018423Y008308D01*
X018367Y008343D01*
X018309Y008374D01*
X018250Y008402D01*
X018190Y008427D01*
X018128Y008449D01*
X018066Y008467D01*
X018002Y008483D01*
X017938Y008495D01*
X017873Y008503D01*
X017807Y008508D01*
X017742Y008510D01*
X018803Y007967D02*
X018840Y007933D01*
X018879Y007901D01*
X018921Y007872D01*
X018964Y007846D01*
X019009Y007824D01*
X019056Y007805D01*
X019104Y007789D01*
X019153Y007776D01*
X019202Y007767D01*
X019253Y007762D01*
X019303Y007760D01*
X015687Y006010D02*
X015625Y006012D01*
X015563Y006018D01*
X015501Y006027D01*
X015440Y006040D01*
X015380Y006057D01*
X015321Y006077D01*
X015264Y006101D01*
X015208Y006128D01*
X015154Y006159D01*
X015101Y006193D01*
X015051Y006229D01*
X015003Y006269D01*
X014958Y006312D01*
X014338Y006933D02*
X014292Y006976D01*
X014244Y007016D01*
X014194Y007054D01*
X014142Y007089D01*
X014088Y007120D01*
X014032Y007149D01*
X013975Y007175D01*
X013916Y007197D01*
X013857Y007216D01*
X013796Y007232D01*
X013734Y007244D01*
X013672Y007253D01*
X013610Y007258D01*
X013547Y007260D01*
X010665Y008165D02*
X010601Y008098D01*
X010540Y008029D01*
X010481Y007957D01*
X010426Y007883D01*
X010374Y007807D01*
X010325Y007729D01*
X010279Y007648D01*
X010237Y007566D01*
X010198Y007482D01*
X010163Y007397D01*
X010131Y007310D01*
X010103Y007222D01*
X010078Y007133D01*
X010058Y007043D01*
X010040Y006952D01*
X010027Y006861D01*
X010018Y006769D01*
X010012Y006676D01*
X010010Y006584D01*
X010010Y005309D01*
D28*
X010059Y005260D01*
X013754Y005260D02*
X013754Y004276D01*
X006279Y002510D02*
X006200Y002512D01*
X006120Y002518D01*
X006041Y002527D01*
X005963Y002540D01*
X005886Y002557D01*
X005809Y002578D01*
X005733Y002602D01*
X005659Y002630D01*
X005586Y002661D01*
X005514Y002696D01*
X005444Y002734D01*
X005377Y002775D01*
X005311Y002819D01*
X005247Y002867D01*
X005186Y002918D01*
X005127Y002971D01*
X005071Y003027D01*
X005018Y003086D01*
X004967Y003147D01*
X004919Y003211D01*
X004875Y003277D01*
X004834Y003345D01*
X004796Y003414D01*
X004761Y003486D01*
X004730Y003559D01*
X004702Y003633D01*
X004678Y003709D01*
X004657Y003786D01*
X004640Y003863D01*
X004627Y003941D01*
X004618Y004020D01*
X004612Y004100D01*
X004610Y004179D01*
X004610Y005200D01*
X004550Y005260D01*
X004560Y005250D01*
X006279Y002510D02*
X028047Y002510D01*
X028837Y002837D02*
X029010Y003010D01*
X028838Y002837D02*
X028792Y002794D01*
X028744Y002754D01*
X028694Y002716D01*
X028642Y002681D01*
X028588Y002650D01*
X028532Y002621D01*
X028475Y002595D01*
X028416Y002573D01*
X028357Y002554D01*
X028296Y002538D01*
X028234Y002526D01*
X028172Y002517D01*
X028110Y002512D01*
X028047Y002510D01*
X028260Y004260D02*
X028260Y004760D01*
M02*
