G75*
%MOIN*%
%OFA0B0*%
%FSLAX24Y24*%
%IPPOS*%
%LPD*%
%AMOC8*
5,1,8,0,0,1.08239X$1,22.5*
%
%ADD10C,0.0010*%
%ADD11C,0.0787*%
%ADD12C,0.0748*%
%ADD13R,0.0660X0.0660*%
%ADD14OC8,0.0660*%
%ADD15R,0.1227X0.1227*%
%ADD16OC8,0.0600*%
%ADD17R,0.0480X0.0480*%
%ADD18C,0.0480*%
%ADD19C,0.0480*%
%ADD20OC8,0.0480*%
%ADD21R,0.0650X0.0650*%
%ADD22C,0.0650*%
%ADD23C,0.0660*%
%ADD24C,0.0413*%
%ADD25C,0.0472*%
%ADD26C,0.0320*%
%ADD27C,0.0240*%
D10*
X001260Y001510D02*
X039236Y001510D01*
X039280Y001512D01*
X039323Y001518D01*
X039366Y001527D01*
X039407Y001540D01*
X039448Y001557D01*
X039487Y001577D01*
X039523Y001601D01*
X039558Y001627D01*
X039590Y001657D01*
X039620Y001689D01*
X039646Y001724D01*
X039670Y001760D01*
X039690Y001799D01*
X039707Y001840D01*
X039720Y001881D01*
X039729Y001924D01*
X039735Y001967D01*
X039737Y002011D01*
X039736Y002011D02*
X039736Y008514D01*
X039737Y008514D02*
X039735Y008556D01*
X039730Y008597D01*
X039721Y008637D01*
X039708Y008677D01*
X039692Y008716D01*
X039673Y008753D01*
X039651Y008788D01*
X039625Y008821D01*
X039597Y008851D01*
X039567Y008879D01*
X039534Y008905D01*
X039499Y008927D01*
X039462Y008946D01*
X039423Y008962D01*
X039383Y008975D01*
X039343Y008984D01*
X039302Y008989D01*
X039260Y008991D01*
X039260Y008990D02*
X001240Y008990D01*
X001198Y008988D01*
X001157Y008983D01*
X001116Y008974D01*
X001076Y008961D01*
X001037Y008945D01*
X001000Y008926D01*
X000965Y008903D01*
X000931Y008878D01*
X000901Y008849D01*
X000872Y008819D01*
X000847Y008785D01*
X000824Y008750D01*
X000805Y008713D01*
X000789Y008674D01*
X000776Y008634D01*
X000767Y008593D01*
X000762Y008552D01*
X000760Y008510D01*
X000760Y002010D01*
X000762Y001966D01*
X000768Y001923D01*
X000777Y001881D01*
X000790Y001839D01*
X000807Y001799D01*
X000827Y001760D01*
X000850Y001723D01*
X000877Y001689D01*
X000906Y001656D01*
X000939Y001627D01*
X000973Y001600D01*
X001010Y001577D01*
X001049Y001557D01*
X001089Y001540D01*
X001131Y001527D01*
X001173Y001518D01*
X001216Y001512D01*
X001260Y001510D01*
D11*
X008603Y003560D02*
X009390Y003560D01*
X010059Y004866D02*
X010059Y005654D01*
X006970Y005654D02*
X006970Y004866D01*
X004550Y004866D02*
X004550Y005654D01*
X001461Y005654D02*
X001461Y004866D01*
X002130Y006960D02*
X002917Y006960D01*
D12*
X008622Y007010D02*
X009370Y007010D01*
X002898Y003510D02*
X002150Y003510D01*
D13*
X013754Y006244D03*
D14*
X013754Y005260D03*
X013754Y004276D03*
D15*
X016510Y003488D03*
X016510Y007032D03*
D16*
X032760Y005760D03*
X033760Y005760D03*
X034760Y005760D03*
X035760Y005760D03*
X036760Y005760D03*
X036760Y004760D03*
X035760Y004760D03*
X034760Y004760D03*
X033760Y004760D03*
X032760Y004760D03*
D17*
X028260Y004260D03*
D18*
X028260Y007260D03*
D19*
X009750Y008260D02*
X009270Y008260D01*
X006750Y008260D02*
X006270Y008260D01*
D20*
X012260Y007260D03*
X019510Y008510D03*
X020510Y008510D03*
X022010Y007010D03*
X027010Y006760D03*
X022010Y005010D03*
X020510Y004510D03*
X019510Y004510D03*
X020010Y003010D03*
X020010Y002010D03*
X024010Y002010D03*
X024010Y003010D03*
X025010Y003010D03*
X029010Y003010D03*
X034760Y003510D03*
X036760Y003510D03*
X027010Y004760D03*
X034760Y007010D03*
X036760Y007010D03*
X012260Y003260D03*
D21*
X032510Y007760D03*
X033260Y002510D03*
D22*
X032260Y002510D03*
X033510Y007760D03*
D23*
X034760Y008010D03*
X038760Y008010D03*
X038760Y002510D03*
X034760Y002510D03*
D24*
X026010Y004303D02*
X026010Y004717D01*
X025010Y004717D02*
X025010Y004303D01*
X024010Y004303D02*
X024010Y004717D01*
X023010Y004717D02*
X023010Y004303D01*
X023010Y007303D02*
X023010Y007717D01*
X024010Y007717D02*
X024010Y007303D01*
X025010Y007303D02*
X025010Y007717D01*
X026010Y007717D02*
X026010Y007303D01*
D25*
X030260Y008038D02*
X030260Y008510D01*
X031260Y008510D02*
X031260Y008038D01*
D26*
X031260Y007880D02*
X031260Y007880D01*
X031638Y007714D02*
X031684Y007777D01*
X031720Y007847D01*
X031744Y007921D01*
X031756Y007999D01*
X031756Y008510D01*
X031756Y008549D01*
X031744Y008626D01*
X031720Y008700D01*
X031707Y008725D01*
X039260Y008725D01*
X039301Y008721D01*
X039377Y008690D01*
X039436Y008631D01*
X039467Y008555D01*
X039471Y008514D01*
X039471Y002011D01*
X039467Y001965D01*
X039432Y001880D01*
X039367Y001815D01*
X039282Y001780D01*
X039236Y001775D01*
X024426Y001775D01*
X024470Y001819D01*
X024470Y002201D01*
X024390Y002281D01*
X024390Y002739D01*
X024470Y002819D01*
X024470Y003201D01*
X024390Y003281D01*
X024390Y004106D01*
X024437Y004218D01*
X024437Y004796D01*
X024583Y004649D01*
X024583Y004218D01*
X024630Y004106D01*
X024630Y003281D01*
X024550Y003201D01*
X024550Y002819D01*
X024819Y002550D01*
X025201Y002550D01*
X025470Y002819D01*
X025470Y003201D01*
X025390Y003281D01*
X025390Y004106D01*
X025437Y004218D01*
X025437Y004802D01*
X025372Y004958D01*
X025252Y005078D01*
X025213Y005094D01*
X024795Y005512D01*
X024742Y005566D01*
X024559Y005748D01*
X024112Y006006D01*
X023613Y006140D01*
X014658Y006140D01*
X014304Y006045D01*
X014304Y006665D01*
X014175Y006794D01*
X013333Y006794D01*
X013204Y006665D01*
X013204Y006330D01*
X013110Y006266D01*
X013110Y006266D01*
X012877Y006006D01*
X012714Y005698D01*
X012714Y005698D01*
X012630Y005359D01*
X012630Y003597D01*
X012467Y003760D01*
X012260Y003760D01*
X012260Y003260D01*
X012260Y003260D01*
X012260Y002760D01*
X012467Y002760D01*
X012717Y003010D01*
X012764Y002834D01*
X013022Y002387D01*
X013387Y002022D01*
X013387Y002022D01*
X013815Y001775D01*
X001260Y001775D01*
X001214Y001780D01*
X001129Y001815D01*
X001065Y001879D01*
X001030Y001964D01*
X001025Y002010D01*
X001025Y004434D01*
X001113Y004346D01*
X001339Y004253D01*
X001583Y004253D01*
X001808Y004346D01*
X001981Y004519D01*
X002074Y004744D01*
X002074Y005776D01*
X001981Y006001D01*
X001808Y006174D01*
X001583Y006267D01*
X001339Y006267D01*
X001113Y006174D01*
X001025Y006086D01*
X001025Y008510D01*
X001029Y008552D01*
X001061Y008630D01*
X001121Y008689D01*
X001198Y008721D01*
X001240Y008725D01*
X006084Y008725D01*
X006078Y008723D01*
X006008Y008688D01*
X005944Y008641D01*
X005889Y008586D01*
X005842Y008522D01*
X005807Y008452D01*
X005782Y008377D01*
X005770Y008299D01*
X005770Y008260D01*
X006510Y008260D01*
X007250Y008260D01*
X007250Y008299D01*
X007238Y008377D01*
X007213Y008452D01*
X007178Y008522D01*
X007131Y008586D01*
X007076Y008641D01*
X007012Y008688D01*
X006942Y008723D01*
X006936Y008725D01*
X019075Y008725D01*
X019050Y008701D01*
X019050Y008319D01*
X019319Y008050D01*
X019701Y008050D01*
X019781Y008130D01*
X020239Y008130D01*
X020319Y008050D01*
X020701Y008050D01*
X020781Y008130D01*
X022893Y008130D01*
X022768Y008078D01*
X022648Y007958D01*
X022620Y007890D01*
X022410Y007890D01*
X022133Y007816D01*
X021885Y007673D01*
X021838Y007625D01*
X021772Y007559D01*
X021731Y007518D01*
X021688Y007475D01*
X021630Y007336D01*
X021630Y007281D01*
X021550Y007201D01*
X021550Y006819D01*
X021819Y006550D01*
X022201Y006550D01*
X022470Y006819D01*
X022470Y007116D01*
X022510Y007127D01*
X022553Y007130D01*
X022620Y007130D01*
X022648Y007062D01*
X022768Y006942D01*
X022925Y006877D01*
X023095Y006877D01*
X023252Y006942D01*
X023372Y007062D01*
X023437Y007218D01*
X023437Y007802D01*
X023372Y007958D01*
X023252Y008078D01*
X023127Y008130D01*
X023893Y008130D01*
X023768Y008078D01*
X023648Y007958D01*
X023583Y007802D01*
X023583Y007218D01*
X023648Y007062D01*
X023768Y006942D01*
X023925Y006877D01*
X024095Y006877D01*
X024103Y006880D01*
X024956Y006026D01*
X025006Y005977D01*
X025019Y005963D01*
X025119Y005864D01*
X025386Y005710D01*
X025683Y005630D01*
X027457Y005630D01*
X027871Y005741D01*
X027871Y005741D01*
X028243Y005956D01*
X028341Y006054D01*
X028395Y006107D01*
X028410Y006123D01*
X028448Y006161D01*
X028513Y006225D01*
X028640Y006533D01*
X028640Y006989D01*
X028650Y006999D01*
X028720Y007168D01*
X028720Y007351D01*
X028650Y007521D01*
X028521Y007650D01*
X028351Y007720D01*
X028168Y007720D01*
X027999Y007650D01*
X027870Y007521D01*
X027800Y007351D01*
X027800Y007168D01*
X027870Y006999D01*
X027880Y006989D01*
X027880Y006699D01*
X027879Y006684D01*
X027867Y006657D01*
X027857Y006645D01*
X027772Y006570D01*
X027575Y006456D01*
X027356Y006397D01*
X027354Y006397D01*
X027510Y006553D01*
X027510Y006760D01*
X027510Y006967D01*
X027217Y007260D01*
X027010Y007260D01*
X027010Y006760D01*
X027010Y006760D01*
X027510Y006760D01*
X027010Y006760D01*
X027010Y006760D01*
X027010Y006760D01*
X026510Y006760D01*
X026510Y006967D01*
X026803Y007260D01*
X027010Y007260D01*
X027010Y006760D01*
X026510Y006760D01*
X026510Y006553D01*
X026673Y006390D01*
X025837Y006390D01*
X025784Y006394D01*
X025680Y006421D01*
X025588Y006475D01*
X025547Y006510D01*
X025502Y006555D01*
X025494Y006564D01*
X025156Y006902D01*
X025252Y006942D01*
X025372Y007062D01*
X025437Y007218D01*
X025437Y007802D01*
X025390Y007914D01*
X025390Y008170D01*
X025278Y008439D01*
X025278Y008439D01*
X025072Y008646D01*
X025072Y008646D01*
X024937Y008701D01*
X024880Y008725D01*
X029855Y008725D01*
X029804Y008601D01*
X029804Y007947D01*
X029873Y007779D01*
X030002Y007651D01*
X030169Y007581D01*
X030351Y007581D01*
X030518Y007651D01*
X030647Y007779D01*
X030716Y007947D01*
X030716Y008601D01*
X030665Y008725D01*
X030813Y008725D01*
X030800Y008700D01*
X030776Y008626D01*
X030764Y008549D01*
X030764Y008510D01*
X030764Y007999D01*
X030776Y007921D01*
X030800Y007847D01*
X030836Y007777D01*
X030882Y007714D01*
X030937Y007659D01*
X031000Y007613D01*
X031070Y007578D01*
X031144Y007554D01*
X031221Y007541D01*
X031260Y007541D01*
X031299Y007541D01*
X031376Y007554D01*
X031450Y007578D01*
X031520Y007613D01*
X031583Y007659D01*
X031638Y007714D01*
X031401Y007562D02*
X031925Y007562D01*
X031260Y007562D02*
X031260Y007562D01*
X031260Y007541D02*
X031260Y008510D01*
X031756Y008510D01*
X031260Y008510D01*
X031260Y008510D01*
X031260Y008510D01*
X031260Y008510D01*
X030764Y008510D01*
X031260Y008510D01*
X031260Y007541D01*
X031119Y007562D02*
X028609Y007562D01*
X027911Y007562D02*
X026437Y007562D01*
X026437Y007802D02*
X026372Y007958D01*
X026252Y008078D01*
X026095Y008143D01*
X025925Y008143D01*
X025768Y008078D01*
X025648Y007958D01*
X025583Y007802D01*
X025583Y007218D01*
X025648Y007062D01*
X025768Y006942D01*
X025925Y006877D01*
X026095Y006877D01*
X026252Y006942D01*
X026372Y007062D01*
X026437Y007218D01*
X026437Y007802D01*
X026404Y007880D02*
X029831Y007880D01*
X030689Y007880D02*
X030789Y007880D01*
X031731Y007880D02*
X031925Y007880D01*
X031925Y007760D02*
X032510Y007760D01*
X032510Y007760D01*
X032510Y008345D01*
X032861Y008345D01*
X032911Y008335D01*
X032958Y008315D01*
X033001Y008287D01*
X033037Y008251D01*
X033065Y008208D01*
X033085Y008161D01*
X033094Y008115D01*
X033201Y008222D01*
X033402Y008305D01*
X033618Y008305D01*
X033819Y008222D01*
X033972Y008069D01*
X034055Y007868D01*
X034055Y007652D01*
X034011Y007546D01*
X034062Y007496D01*
X034073Y007484D01*
X034115Y007442D01*
X034133Y007427D01*
X034173Y007404D01*
X034218Y007392D01*
X034242Y007390D01*
X034489Y007390D01*
X034556Y007456D01*
X034534Y007463D01*
X034451Y007505D01*
X034376Y007560D01*
X034310Y007626D01*
X034255Y007701D01*
X034213Y007784D01*
X034185Y007872D01*
X034170Y007964D01*
X034170Y008010D01*
X034760Y008010D01*
X034760Y008010D01*
X034760Y008600D01*
X034806Y008600D01*
X034898Y008585D01*
X034986Y008557D01*
X035069Y008515D01*
X035144Y008460D01*
X035210Y008394D01*
X035265Y008319D01*
X035307Y008236D01*
X035335Y008148D01*
X035350Y008056D01*
X035350Y008010D01*
X034760Y008010D01*
X034760Y008010D01*
X034760Y008010D01*
X034760Y008600D01*
X034714Y008600D01*
X034622Y008585D01*
X034534Y008557D01*
X034451Y008515D01*
X034376Y008460D01*
X034310Y008394D01*
X034255Y008319D01*
X034213Y008236D01*
X034185Y008148D01*
X034170Y008056D01*
X034170Y008010D01*
X034760Y008010D01*
X035350Y008010D01*
X035350Y007964D01*
X035335Y007872D01*
X035307Y007784D01*
X035265Y007701D01*
X035210Y007626D01*
X035144Y007560D01*
X035069Y007505D01*
X034986Y007463D01*
X034964Y007456D01*
X035220Y007201D01*
X035220Y006819D01*
X035191Y006790D01*
X035904Y006790D01*
X035935Y006792D01*
X035995Y006808D01*
X036049Y006839D01*
X036072Y006860D01*
X036077Y006865D01*
X036126Y006913D01*
X036126Y006913D01*
X036300Y007087D01*
X036300Y007201D01*
X036569Y007470D01*
X036951Y007470D01*
X037031Y007390D01*
X037433Y007390D01*
X037486Y007394D01*
X037590Y007421D01*
X037682Y007475D01*
X037723Y007510D01*
X038210Y007997D01*
X038210Y008119D01*
X038294Y008322D01*
X038448Y008476D01*
X038651Y008560D01*
X038869Y008560D01*
X039072Y008476D01*
X039226Y008322D01*
X039310Y008119D01*
X039310Y007901D01*
X039226Y007698D01*
X039072Y007544D01*
X038869Y007460D01*
X038747Y007460D01*
X038314Y007026D01*
X038314Y007026D01*
X038266Y006979D01*
X038242Y006955D01*
X038151Y006864D01*
X038151Y006864D01*
X037884Y006710D01*
X037884Y006710D01*
X037587Y006630D01*
X037031Y006630D01*
X036951Y006550D01*
X036837Y006550D01*
X036598Y006311D01*
X036567Y006280D01*
X036975Y006280D01*
X037280Y005975D01*
X037280Y005545D01*
X037140Y005405D01*
X037140Y005115D01*
X037280Y004975D01*
X037280Y004545D01*
X037140Y004405D01*
X037140Y003890D01*
X037652Y003890D01*
X037891Y003826D01*
X037891Y003826D01*
X038105Y003702D01*
X038192Y003615D01*
X038246Y003562D01*
X038246Y003562D01*
X038747Y003060D01*
X038869Y003060D01*
X039072Y002976D01*
X039226Y002822D01*
X039310Y002619D01*
X039310Y002401D01*
X039226Y002198D01*
X039072Y002044D01*
X038869Y001960D01*
X038651Y001960D01*
X038448Y002044D01*
X038294Y002198D01*
X038210Y002401D01*
X038210Y002523D01*
X037708Y003024D01*
X037708Y003024D01*
X037655Y003078D01*
X037637Y003093D01*
X037637Y003093D01*
X037597Y003116D01*
X037552Y003128D01*
X037528Y003130D01*
X037031Y003130D01*
X036951Y003050D01*
X036569Y003050D01*
X036300Y003319D01*
X036300Y003701D01*
X036380Y003781D01*
X036380Y004405D01*
X036288Y004496D01*
X035992Y004200D01*
X035760Y004200D01*
X035760Y004760D01*
X035760Y004760D01*
X035760Y005760D01*
X035760Y005760D01*
X035760Y005760D01*
X034760Y005760D01*
X034760Y005760D01*
X034760Y004760D01*
X035760Y004760D01*
X035760Y004760D01*
X035760Y004760D01*
X035760Y005200D01*
X035760Y005760D01*
X035200Y005760D01*
X034760Y005760D01*
X034760Y005760D01*
X034760Y005760D01*
X033760Y005760D01*
X033760Y005760D01*
X033760Y004760D01*
X034760Y004760D01*
X034760Y004760D01*
X034760Y004760D01*
X034760Y004200D01*
X034992Y004200D01*
X035260Y004468D01*
X035528Y004200D01*
X035760Y004200D01*
X035760Y004760D01*
X035200Y004760D01*
X034760Y004760D01*
X034760Y004760D01*
X034760Y004760D01*
X034760Y005200D01*
X034760Y005760D01*
X034200Y005760D01*
X033760Y005760D01*
X033760Y005760D01*
X033760Y005200D01*
X033760Y004760D01*
X033760Y004760D01*
X033760Y004760D01*
X033760Y004200D01*
X033992Y004200D01*
X034260Y004468D01*
X034528Y004200D01*
X034760Y004200D01*
X034760Y004760D01*
X034200Y004760D01*
X033760Y004760D01*
X033760Y004760D01*
X033760Y004200D01*
X033528Y004200D01*
X033232Y004496D01*
X032975Y004240D01*
X032545Y004240D01*
X032240Y004545D01*
X032240Y004975D01*
X032380Y005115D01*
X032380Y005405D01*
X032240Y005545D01*
X032240Y005975D01*
X032545Y006280D01*
X032593Y006280D01*
X032750Y006438D01*
X032750Y006438D01*
X032804Y006491D01*
X032804Y006491D01*
X032899Y006586D01*
X032899Y006586D01*
X033131Y006720D01*
X033131Y006720D01*
X033391Y006790D01*
X033713Y006790D01*
X033665Y006818D01*
X033665Y006818D01*
X033631Y006852D01*
X033536Y006946D01*
X033524Y006958D01*
X033188Y007295D01*
X033176Y007323D01*
X033094Y007405D01*
X033085Y007359D01*
X033065Y007312D01*
X033037Y007269D01*
X033001Y007233D01*
X032958Y007205D01*
X032911Y007185D01*
X032861Y007175D01*
X032510Y007175D01*
X032510Y007760D01*
X032510Y007760D01*
X032510Y007760D01*
X032510Y008345D01*
X032159Y008345D01*
X032109Y008335D01*
X032062Y008315D01*
X032019Y008287D01*
X031983Y008251D01*
X031955Y008208D01*
X031935Y008161D01*
X031925Y008111D01*
X031925Y007760D01*
X031925Y007409D01*
X031935Y007359D01*
X031955Y007312D01*
X031983Y007269D01*
X032019Y007233D01*
X032062Y007205D01*
X032109Y007185D01*
X032159Y007175D01*
X032510Y007175D01*
X032510Y007760D01*
X031925Y007760D01*
X032510Y007880D02*
X032510Y007880D01*
X033510Y007760D02*
X033510Y007510D01*
X033846Y007174D01*
X033240Y007243D02*
X033011Y007243D01*
X032510Y007243D02*
X032510Y007243D01*
X032009Y007243D02*
X028720Y007243D01*
X028260Y007260D02*
X028260Y006699D01*
X028640Y006606D02*
X032933Y006606D01*
X033525Y006410D02*
X035904Y006410D01*
X036341Y006591D02*
X036760Y007010D01*
X037433Y007010D01*
X038212Y006925D02*
X039471Y006925D01*
X039471Y007243D02*
X038530Y007243D01*
X037992Y007242D02*
X038760Y008010D01*
X039301Y007880D02*
X039471Y007880D01*
X039471Y007562D02*
X039089Y007562D01*
X038093Y007880D02*
X035337Y007880D01*
X035319Y008199D02*
X038243Y008199D01*
X039277Y008199D02*
X039471Y008199D01*
X039471Y008517D02*
X038973Y008517D01*
X038547Y008517D02*
X035065Y008517D01*
X034760Y008517D02*
X034760Y008517D01*
X034455Y008517D02*
X031756Y008517D01*
X031756Y008199D02*
X031951Y008199D01*
X031260Y008199D02*
X031260Y008199D01*
X030764Y008199D02*
X030716Y008199D01*
X029804Y008199D02*
X025378Y008199D01*
X024792Y008350D02*
X024592Y008433D01*
X024205Y008510D02*
X020510Y008510D01*
X019510Y008510D01*
X019050Y008517D02*
X011287Y008517D01*
X011375Y008496D02*
X010936Y008600D01*
X010061Y008600D01*
X010011Y008650D01*
X009841Y008720D01*
X009178Y008720D01*
X009009Y008650D01*
X008959Y008600D01*
X008318Y008600D01*
X007914Y008492D01*
X007551Y008282D01*
X007403Y008134D01*
X007356Y008086D01*
X007142Y007873D01*
X007099Y007829D01*
X006950Y007681D01*
X006950Y007681D01*
X006739Y007316D01*
X006739Y007316D01*
X006630Y006909D01*
X006630Y006177D01*
X006623Y006174D01*
X006450Y006001D01*
X006357Y005776D01*
X006357Y004744D01*
X006450Y004519D01*
X006623Y004346D01*
X006848Y004253D01*
X007092Y004253D01*
X007318Y004346D01*
X007491Y004519D01*
X007584Y004744D01*
X007584Y005776D01*
X007491Y006001D01*
X007318Y006174D01*
X007310Y006177D01*
X007310Y006699D01*
X007318Y006819D01*
X007380Y007050D01*
X007500Y007258D01*
X007579Y007349D01*
X007623Y007392D01*
X007836Y007606D01*
X007836Y007606D01*
X007884Y007653D01*
X007974Y007732D01*
X008180Y007851D01*
X008409Y007912D01*
X008528Y007920D01*
X008959Y007920D01*
X009009Y007870D01*
X009178Y007800D01*
X009841Y007800D01*
X010011Y007870D01*
X010061Y007920D01*
X010710Y007920D01*
X010855Y007912D01*
X011139Y007845D01*
X011400Y007714D01*
X011624Y007527D01*
X011718Y007416D01*
X011800Y007307D01*
X011800Y007069D01*
X012069Y006800D01*
X012451Y006800D01*
X012720Y007069D01*
X012720Y007451D01*
X012451Y007720D01*
X012340Y007720D01*
X012303Y007770D01*
X012262Y007824D01*
X012127Y008004D01*
X012127Y008004D01*
X012127Y008004D01*
X011780Y008294D01*
X011780Y008294D01*
X011375Y008496D01*
X011375Y008496D01*
X011894Y008199D02*
X019171Y008199D01*
X017343Y007736D02*
X017215Y007865D01*
X015805Y007865D01*
X015677Y007736D01*
X015677Y006327D01*
X015805Y006198D01*
X017215Y006198D01*
X017343Y006327D01*
X017343Y007736D01*
X017343Y007562D02*
X021774Y007562D01*
X021885Y007673D02*
X021885Y007673D01*
X022133Y007816D02*
X022133Y007816D01*
X022372Y007880D02*
X012220Y007880D01*
X012303Y007770D02*
X012303Y007770D01*
X012609Y007562D02*
X015677Y007562D01*
X015677Y007243D02*
X012720Y007243D01*
X012575Y006925D02*
X015677Y006925D01*
X015677Y006606D02*
X014304Y006606D01*
X013204Y006606D02*
X009860Y006606D01*
X009854Y006597D02*
X009912Y006678D01*
X009958Y006767D01*
X009989Y006862D01*
X010004Y006960D01*
X010004Y007010D01*
X008996Y007010D01*
X008996Y007010D01*
X008996Y006376D01*
X008572Y006376D01*
X008474Y006392D01*
X008379Y006423D01*
X008290Y006468D01*
X008209Y006527D01*
X008139Y006597D01*
X008080Y006678D01*
X008035Y006767D01*
X008004Y006862D01*
X007988Y006960D01*
X007988Y007010D01*
X008996Y007010D01*
X008996Y007010D01*
X008996Y006376D01*
X009420Y006376D01*
X009519Y006392D01*
X009614Y006423D01*
X009703Y006468D01*
X009783Y006527D01*
X009854Y006597D01*
X009937Y006267D02*
X009712Y006174D01*
X009539Y006001D01*
X009446Y005776D01*
X009446Y004744D01*
X009539Y004519D01*
X009712Y004346D01*
X009937Y004253D01*
X010181Y004253D01*
X010407Y004346D01*
X010579Y004519D01*
X010673Y004744D01*
X010673Y005776D01*
X010579Y006001D01*
X010407Y006174D01*
X010181Y006267D01*
X009937Y006267D01*
X009526Y005969D02*
X007504Y005969D01*
X007584Y005651D02*
X009446Y005651D01*
X009446Y005332D02*
X007584Y005332D01*
X007584Y005014D02*
X009446Y005014D01*
X009466Y004695D02*
X007564Y004695D01*
X007348Y004377D02*
X009681Y004377D01*
X009600Y004180D02*
X009518Y004202D01*
X009433Y004213D01*
X008996Y004213D01*
X008560Y004213D01*
X008475Y004202D01*
X008392Y004180D01*
X008313Y004147D01*
X008239Y004104D01*
X008171Y004052D01*
X008110Y003992D01*
X008058Y003924D01*
X008015Y003849D01*
X007982Y003770D01*
X007960Y003687D01*
X007949Y003602D01*
X007949Y003560D01*
X008996Y003560D01*
X008996Y004213D01*
X008996Y003560D01*
X008996Y003560D01*
X008996Y003560D01*
X007949Y003560D01*
X007949Y003517D01*
X007960Y003432D01*
X007982Y003349D01*
X008015Y003270D01*
X008058Y003196D01*
X008110Y003128D01*
X008171Y003067D01*
X008239Y003015D01*
X008313Y002972D01*
X008392Y002939D01*
X008475Y002917D01*
X008560Y002906D01*
X008996Y002906D01*
X008996Y003560D01*
X010044Y003560D01*
X010044Y003602D01*
X010032Y003687D01*
X010010Y003770D01*
X009977Y003849D01*
X009935Y003924D01*
X009882Y003992D01*
X009822Y004052D01*
X009754Y004104D01*
X009680Y004147D01*
X009600Y004180D01*
X009814Y004058D02*
X012630Y004058D01*
X013390Y003862D02*
X013526Y003726D01*
X013982Y003726D01*
X014304Y004048D01*
X014304Y004504D01*
X014040Y004768D01*
X014304Y005032D01*
X014304Y005202D01*
X014450Y005287D01*
X014759Y005370D01*
X014919Y005380D01*
X021673Y005380D01*
X021510Y005217D01*
X021510Y005010D01*
X022010Y005010D01*
X022510Y005010D01*
X022510Y005217D01*
X022347Y005380D01*
X023355Y005380D01*
X023512Y005370D01*
X023815Y005289D01*
X024066Y005143D01*
X023925Y005143D01*
X023768Y005078D01*
X023648Y004958D01*
X023583Y004802D01*
X023583Y004218D01*
X023630Y004106D01*
X023630Y003281D01*
X023550Y003201D01*
X023550Y002819D01*
X023630Y002739D01*
X023630Y002281D01*
X023550Y002201D01*
X023550Y001819D01*
X023594Y001775D01*
X020426Y001775D01*
X020470Y001819D01*
X020470Y002201D01*
X020201Y002470D01*
X019819Y002470D01*
X019739Y002390D01*
X014591Y002390D01*
X014434Y002400D01*
X014131Y002481D01*
X013860Y002638D01*
X013638Y002860D01*
X013481Y003131D01*
X013400Y003434D01*
X013390Y003591D01*
X013390Y003862D01*
X013390Y003740D02*
X013513Y003740D01*
X013996Y003740D02*
X015677Y003740D01*
X015677Y004058D02*
X014304Y004058D01*
X013784Y005290D02*
X013841Y005344D01*
X013901Y005396D01*
X013963Y005444D01*
X014027Y005490D01*
X014094Y005532D01*
X014162Y005570D01*
X014233Y005606D01*
X014305Y005638D01*
X014378Y005666D01*
X014453Y005691D01*
X014529Y005712D01*
X014606Y005729D01*
X014683Y005743D01*
X014762Y005752D01*
X014840Y005758D01*
X014919Y005760D01*
X023355Y005760D01*
X024177Y005969D02*
X025014Y005969D01*
X024956Y006026D02*
X024956Y006026D01*
X025119Y005864D02*
X025119Y005864D01*
X025386Y005710D02*
X025386Y005710D01*
X025607Y005651D02*
X024657Y005651D01*
X024742Y005566D02*
X024742Y005566D01*
X024795Y005512D02*
X024795Y005512D01*
X024975Y005332D02*
X032380Y005332D01*
X032278Y005014D02*
X027407Y005014D01*
X027470Y004951D02*
X027201Y005220D01*
X026819Y005220D01*
X026550Y004951D01*
X026550Y004569D01*
X026819Y004300D01*
X027201Y004300D01*
X027470Y004569D01*
X027470Y004951D01*
X027470Y004695D02*
X027904Y004695D01*
X027929Y004720D02*
X027800Y004591D01*
X027800Y003929D01*
X027929Y003800D01*
X028591Y003800D01*
X028720Y003929D01*
X028720Y004591D01*
X028591Y004720D01*
X027929Y004720D01*
X028616Y004695D02*
X032240Y004695D01*
X032760Y004760D02*
X032760Y005760D01*
X032240Y005651D02*
X027533Y005651D01*
X028243Y005956D02*
X028243Y005956D01*
X028256Y005969D02*
X032240Y005969D01*
X032760Y005910D02*
X033072Y006222D01*
X032600Y006288D02*
X028538Y006288D01*
X028513Y006225D02*
X028513Y006225D01*
X028448Y006161D02*
X028448Y006161D01*
X027242Y006010D02*
X025837Y006010D01*
X025278Y006242D02*
X024010Y007510D01*
X024205Y008510D02*
X024262Y008508D01*
X024318Y008504D01*
X024374Y008496D01*
X024430Y008485D01*
X024485Y008470D01*
X024539Y008453D01*
X024592Y008433D01*
X025201Y008517D02*
X029804Y008517D01*
X030716Y008517D02*
X030764Y008517D01*
X032510Y008199D02*
X032510Y008199D01*
X033069Y008199D02*
X033178Y008199D01*
X033842Y008199D02*
X034201Y008199D01*
X034760Y008199D02*
X034760Y008199D01*
X034183Y007880D02*
X034050Y007880D01*
X034018Y007562D02*
X034374Y007562D01*
X034242Y007010D02*
X034198Y007012D01*
X034155Y007017D01*
X034112Y007025D01*
X034069Y007037D01*
X034028Y007053D01*
X033988Y007071D01*
X033950Y007092D01*
X033913Y007117D01*
X033879Y007144D01*
X033847Y007174D01*
X033558Y006925D02*
X028640Y006925D01*
X027880Y006925D02*
X027510Y006925D01*
X027010Y006925D02*
X027010Y006925D01*
X026510Y006925D02*
X026210Y006925D01*
X025810Y006925D02*
X025210Y006925D01*
X025278Y006242D02*
X025315Y006206D01*
X025355Y006173D01*
X025398Y006143D01*
X025441Y006116D01*
X025487Y006092D01*
X025534Y006070D01*
X025583Y006052D01*
X025632Y006037D01*
X025683Y006025D01*
X025734Y006017D01*
X025785Y006012D01*
X025837Y006010D01*
X024695Y006288D02*
X017304Y006288D01*
X017343Y006606D02*
X021763Y006606D01*
X022257Y006606D02*
X024377Y006606D01*
X023810Y006925D02*
X023210Y006925D01*
X022810Y006925D02*
X022470Y006925D01*
X022010Y007010D02*
X022010Y007260D01*
X022053Y007303D01*
X021592Y007243D02*
X017343Y007243D01*
X017343Y006925D02*
X021550Y006925D01*
X022053Y007303D02*
X022090Y007337D01*
X022129Y007369D01*
X022171Y007398D01*
X022214Y007424D01*
X022259Y007446D01*
X022306Y007465D01*
X022354Y007481D01*
X022403Y007494D01*
X022452Y007503D01*
X022503Y007508D01*
X022553Y007510D01*
X023010Y007510D01*
X023437Y007562D02*
X023583Y007562D01*
X023583Y007243D02*
X023437Y007243D01*
X025010Y007510D02*
X025010Y008024D01*
X025008Y008059D01*
X025003Y008093D01*
X024995Y008127D01*
X024983Y008159D01*
X024968Y008191D01*
X024950Y008221D01*
X024930Y008249D01*
X024906Y008274D01*
X024881Y008298D01*
X024853Y008318D01*
X024823Y008336D01*
X024791Y008351D01*
X025404Y007880D02*
X025616Y007880D01*
X025583Y007562D02*
X025437Y007562D01*
X025437Y007243D02*
X025583Y007243D01*
X026437Y007243D02*
X026786Y007243D01*
X027010Y007243D02*
X027010Y007243D01*
X027234Y007243D02*
X027800Y007243D01*
X028126Y006376D02*
X028078Y006331D01*
X028029Y006289D01*
X027977Y006249D01*
X027923Y006212D01*
X027867Y006177D01*
X027809Y006146D01*
X027750Y006118D01*
X027690Y006093D01*
X027628Y006071D01*
X027566Y006053D01*
X027502Y006037D01*
X027438Y006025D01*
X027373Y006017D01*
X027307Y006012D01*
X027242Y006010D01*
X027510Y006606D02*
X027813Y006606D01*
X027857Y006645D02*
X027857Y006645D01*
X028126Y006376D02*
X028153Y006405D01*
X028177Y006437D01*
X028199Y006471D01*
X028217Y006506D01*
X028232Y006543D01*
X028244Y006581D01*
X028253Y006620D01*
X028258Y006659D01*
X028260Y006699D01*
X026510Y006606D02*
X025451Y006606D01*
X024112Y006006D02*
X024112Y006006D01*
X024559Y005748D02*
X024559Y005748D01*
X024473Y005297D02*
X025010Y004760D01*
X025010Y004510D01*
X025010Y003010D01*
X024550Y003103D02*
X024470Y003103D01*
X024010Y003010D02*
X024010Y002010D01*
X024470Y002147D02*
X031801Y002147D01*
X031814Y002129D02*
X031879Y002064D01*
X031953Y002010D01*
X032035Y001968D01*
X032123Y001939D01*
X032214Y001925D01*
X032260Y001925D01*
X032306Y001925D01*
X032397Y001939D01*
X032485Y001968D01*
X032567Y002010D01*
X032641Y002064D01*
X032706Y002129D01*
X032715Y002141D01*
X032715Y002094D01*
X032844Y001965D01*
X033676Y001965D01*
X033805Y002094D01*
X033805Y002518D01*
X034297Y003010D01*
X034338Y003045D01*
X034430Y003099D01*
X034502Y003118D01*
X034556Y003064D01*
X034534Y003057D01*
X034451Y003015D01*
X034376Y002960D01*
X034310Y002894D01*
X034255Y002819D01*
X034213Y002736D01*
X034185Y002648D01*
X034170Y002556D01*
X034170Y002510D01*
X034760Y002510D01*
X035350Y002510D01*
X035350Y002556D01*
X035335Y002648D01*
X035307Y002736D01*
X035265Y002819D01*
X035210Y002894D01*
X035144Y002960D01*
X035069Y003015D01*
X034986Y003057D01*
X034964Y003064D01*
X035220Y003319D01*
X035220Y003701D01*
X034951Y003970D01*
X034569Y003970D01*
X034489Y003890D01*
X034433Y003890D01*
X034136Y003810D01*
X034136Y003810D01*
X033869Y003656D01*
X033869Y003656D01*
X033770Y003557D01*
X033756Y003544D01*
X033706Y003494D01*
X033706Y003494D01*
X033268Y003055D01*
X032844Y003055D01*
X032715Y002926D01*
X032715Y002879D01*
X032706Y002891D01*
X032641Y002956D01*
X032567Y003010D01*
X032485Y003052D01*
X032397Y003081D01*
X032306Y003095D01*
X032260Y003095D01*
X032260Y002510D01*
X032260Y002510D01*
X032260Y001925D01*
X032260Y002510D01*
X032260Y002510D01*
X032260Y002510D01*
X031675Y002510D01*
X031675Y002556D01*
X031689Y002647D01*
X031718Y002735D01*
X031760Y002817D01*
X031814Y002891D01*
X031879Y002956D01*
X031953Y003010D01*
X032035Y003052D01*
X032123Y003081D01*
X032214Y003095D01*
X032260Y003095D01*
X032260Y002510D01*
X031675Y002510D01*
X031675Y002464D01*
X031689Y002373D01*
X031718Y002285D01*
X031760Y002203D01*
X031814Y002129D01*
X032260Y002147D02*
X032260Y002147D01*
X032260Y002466D02*
X032260Y002466D01*
X031675Y002466D02*
X024390Y002466D01*
X023630Y002466D02*
X020205Y002466D01*
X020217Y002510D02*
X020010Y002510D01*
X020010Y003010D01*
X020510Y003010D01*
X020510Y003217D01*
X020217Y003510D01*
X020010Y003510D01*
X020010Y003010D01*
X020010Y003010D01*
X020010Y003010D01*
X020510Y003010D01*
X020510Y002803D01*
X020217Y002510D01*
X020010Y002510D02*
X020010Y003010D01*
X020010Y003010D01*
X020010Y003010D01*
X019510Y003010D01*
X019510Y003217D01*
X019803Y003510D01*
X020010Y003510D01*
X020010Y003010D01*
X019510Y003010D01*
X019510Y002803D01*
X019803Y002510D01*
X020010Y002510D01*
X019815Y002466D02*
X014191Y002466D01*
X013714Y002784D02*
X015677Y002784D01*
X015805Y002655D01*
X017215Y002655D01*
X017343Y002784D01*
X019529Y002784D01*
X020010Y002784D02*
X020010Y002784D01*
X020491Y002784D02*
X023585Y002784D01*
X024435Y002784D02*
X024585Y002784D01*
X024010Y003010D02*
X024010Y004510D01*
X024437Y004377D02*
X024583Y004377D01*
X023583Y004377D02*
X023437Y004377D01*
X023010Y004510D02*
X020510Y004510D01*
X020050Y004377D02*
X020010Y004377D01*
X020050Y004319D02*
X020319Y004050D01*
X020701Y004050D01*
X020781Y004130D01*
X022620Y004130D01*
X022648Y004062D01*
X022768Y003942D01*
X022925Y003877D01*
X023095Y003877D01*
X023252Y003942D01*
X023372Y004062D01*
X023437Y004218D01*
X023437Y004802D01*
X023372Y004958D01*
X023252Y005078D01*
X023095Y005143D01*
X022925Y005143D01*
X022768Y005078D01*
X022648Y004958D01*
X022620Y004890D01*
X022510Y004890D01*
X022510Y005010D01*
X022010Y005010D01*
X022010Y005010D01*
X022010Y005010D01*
X021510Y005010D01*
X021510Y004890D01*
X020781Y004890D01*
X020701Y004970D01*
X020319Y004970D01*
X020050Y004701D01*
X020050Y004319D01*
X020010Y004303D02*
X020010Y004510D01*
X020010Y004717D01*
X019717Y005010D01*
X019510Y005010D01*
X019510Y004510D01*
X019510Y004510D01*
X020010Y004510D01*
X019510Y004510D01*
X019510Y004510D01*
X019510Y004510D01*
X019010Y004510D01*
X019010Y004717D01*
X019303Y005010D01*
X019510Y005010D01*
X019510Y004510D01*
X019510Y004010D01*
X019717Y004010D01*
X020010Y004303D01*
X019510Y004377D02*
X019510Y004377D01*
X019510Y004510D02*
X019510Y004510D01*
X019010Y004510D01*
X019010Y004303D01*
X019303Y004010D01*
X019510Y004010D01*
X019510Y004510D01*
X019010Y004377D02*
X014304Y004377D01*
X014113Y004695D02*
X019010Y004695D01*
X019510Y004695D02*
X019510Y004695D01*
X020010Y004695D02*
X020050Y004695D01*
X021510Y005014D02*
X014285Y005014D01*
X013010Y005185D02*
X013012Y005249D01*
X013018Y005312D01*
X013027Y005375D01*
X013041Y005437D01*
X013058Y005498D01*
X013079Y005558D01*
X013103Y005617D01*
X013131Y005674D01*
X013163Y005729D01*
X013198Y005782D01*
X013236Y005833D01*
X013276Y005882D01*
X013320Y005928D01*
X013367Y005971D01*
X013416Y006012D01*
X013467Y006049D01*
X013468Y006050D02*
X013754Y006244D01*
X014304Y006288D02*
X015716Y006288D01*
X013142Y006288D02*
X007310Y006288D01*
X006630Y006288D02*
X001025Y006288D01*
X001638Y006528D02*
X001698Y006468D01*
X001766Y006416D01*
X001840Y006373D01*
X001920Y006340D01*
X002002Y006318D01*
X002087Y006307D01*
X002524Y006307D01*
X002960Y006307D01*
X003045Y006318D01*
X003128Y006340D01*
X003207Y006373D01*
X003281Y006416D01*
X003349Y006468D01*
X003410Y006528D01*
X003462Y006596D01*
X003505Y006671D01*
X003538Y006750D01*
X003560Y006833D01*
X003571Y006918D01*
X003571Y006960D01*
X002524Y006960D01*
X002524Y006307D01*
X002524Y006960D01*
X002524Y006960D01*
X002524Y006960D01*
X003571Y006960D01*
X003571Y007003D01*
X003560Y007088D01*
X003538Y007171D01*
X003505Y007250D01*
X003462Y007324D01*
X003410Y007392D01*
X003349Y007453D01*
X003281Y007505D01*
X003207Y007548D01*
X003128Y007581D01*
X003045Y007603D01*
X002960Y007614D01*
X002524Y007614D01*
X002524Y006960D01*
X001476Y006960D01*
X001476Y006918D01*
X001488Y006833D01*
X001510Y006750D01*
X001543Y006671D01*
X001585Y006596D01*
X001638Y006528D01*
X001580Y006606D02*
X001025Y006606D01*
X001025Y006925D02*
X001476Y006925D01*
X001476Y006960D02*
X002524Y006960D01*
X002524Y006960D01*
X002524Y006960D01*
X002524Y007614D01*
X002087Y007614D01*
X002002Y007603D01*
X001920Y007581D01*
X001840Y007548D01*
X001766Y007505D01*
X001698Y007453D01*
X001638Y007392D01*
X001585Y007324D01*
X001543Y007250D01*
X001510Y007171D01*
X001488Y007088D01*
X001476Y007003D01*
X001476Y006960D01*
X001540Y007243D02*
X001025Y007243D01*
X001025Y007562D02*
X001873Y007562D01*
X002524Y007562D02*
X002524Y007562D01*
X003174Y007562D02*
X006881Y007562D01*
X006867Y007772D02*
X006942Y007797D01*
X007012Y007832D01*
X007076Y007879D01*
X007131Y007934D01*
X007178Y007998D01*
X007213Y008068D01*
X007238Y008143D01*
X007250Y008221D01*
X007250Y008260D01*
X006510Y008260D01*
X006510Y008260D01*
X006510Y007760D01*
X006789Y007760D01*
X006867Y007772D01*
X007077Y007880D02*
X007149Y007880D01*
X007356Y008086D02*
X007356Y008086D01*
X007403Y008134D02*
X007403Y008134D01*
X007468Y008199D02*
X007246Y008199D01*
X007551Y008282D02*
X007551Y008282D01*
X007914Y008492D02*
X007914Y008492D01*
X008009Y008517D02*
X007180Y008517D01*
X006510Y008260D02*
X006510Y008260D01*
X006510Y008260D01*
X006510Y007760D01*
X006231Y007760D01*
X006153Y007772D01*
X006078Y007797D01*
X006008Y007832D01*
X005944Y007879D01*
X005889Y007934D01*
X005842Y007998D01*
X005807Y008068D01*
X005782Y008143D01*
X005770Y008221D01*
X005770Y008260D01*
X006510Y008260D01*
X006510Y008199D02*
X006510Y008199D01*
X005774Y008199D02*
X001025Y008199D01*
X001026Y008517D02*
X005840Y008517D01*
X005943Y007880D02*
X001025Y007880D01*
X002524Y007243D02*
X002524Y007243D01*
X003508Y007243D02*
X006720Y007243D01*
X007491Y007243D02*
X008031Y007243D01*
X008035Y007254D02*
X008004Y007159D01*
X007988Y007060D01*
X007988Y007010D01*
X008996Y007010D01*
X008996Y007010D01*
X008996Y007644D01*
X008572Y007644D01*
X008474Y007629D01*
X008379Y007598D01*
X008290Y007553D01*
X008209Y007494D01*
X008139Y007423D01*
X008080Y007343D01*
X008035Y007254D01*
X008996Y007243D02*
X008996Y007243D01*
X009703Y007553D02*
X009783Y007494D01*
X009854Y007423D01*
X009912Y007343D01*
X009958Y007254D01*
X009989Y007159D01*
X010004Y007060D01*
X010004Y007010D01*
X008996Y007010D01*
X008996Y007010D01*
X008996Y007644D01*
X009420Y007644D01*
X009519Y007629D01*
X009614Y007598D01*
X009703Y007553D01*
X009685Y007562D02*
X011583Y007562D01*
X011800Y007243D02*
X009961Y007243D01*
X009999Y006925D02*
X011945Y006925D01*
X008996Y006925D02*
X008996Y006925D01*
X007994Y006925D02*
X007346Y006925D01*
X006634Y006925D02*
X003571Y006925D01*
X002524Y006925D02*
X002524Y006925D01*
X002524Y006606D02*
X002524Y006606D01*
X003468Y006606D02*
X006630Y006606D01*
X007310Y006606D02*
X008132Y006606D01*
X008996Y006606D02*
X008996Y006606D01*
X010593Y005969D02*
X012858Y005969D01*
X012877Y006006D02*
X012877Y006006D01*
X012702Y005651D02*
X010673Y005651D01*
X010673Y005332D02*
X012630Y005332D01*
X013010Y005185D02*
X013010Y003591D01*
X013404Y003421D02*
X015677Y003421D01*
X015677Y003103D02*
X013498Y003103D01*
X013638Y002860D02*
X013638Y002860D01*
X012793Y002784D02*
X012491Y002784D01*
X012260Y002784D02*
X012260Y002784D01*
X012260Y002760D02*
X012260Y003260D01*
X012260Y003260D01*
X012260Y003260D01*
X011760Y003260D01*
X011760Y003467D01*
X012053Y003760D01*
X012260Y003760D01*
X012260Y003260D01*
X011760Y003260D01*
X011760Y003053D01*
X012053Y002760D01*
X012260Y002760D01*
X012029Y002784D02*
X001025Y002784D01*
X001737Y003026D02*
X001817Y002967D01*
X001906Y002922D01*
X002001Y002891D01*
X002100Y002876D01*
X002524Y002876D01*
X002948Y002876D01*
X003046Y002891D01*
X003141Y002922D01*
X003230Y002967D01*
X003311Y003026D01*
X003381Y003097D01*
X003440Y003177D01*
X003485Y003266D01*
X003516Y003361D01*
X003532Y003460D01*
X003532Y003510D01*
X003532Y003560D01*
X003516Y003658D01*
X003485Y003753D01*
X003440Y003842D01*
X003381Y003923D01*
X003311Y003993D01*
X003230Y004052D01*
X003141Y004097D01*
X003046Y004128D01*
X002948Y004144D01*
X002524Y004144D01*
X002524Y003510D01*
X002524Y003510D01*
X003532Y003510D01*
X002524Y003510D01*
X002524Y003510D01*
X002524Y004144D01*
X002100Y004144D01*
X002001Y004128D01*
X001906Y004097D01*
X001817Y004052D01*
X001737Y003993D01*
X001666Y003923D01*
X001608Y003842D01*
X001562Y003753D01*
X001531Y003658D01*
X001516Y003560D01*
X001516Y003510D01*
X002524Y003510D01*
X002524Y003510D01*
X002524Y002876D01*
X002524Y003510D01*
X002524Y003510D01*
X001516Y003510D01*
X001516Y003460D01*
X001531Y003361D01*
X001562Y003266D01*
X001608Y003177D01*
X001666Y003097D01*
X001737Y003026D01*
X001662Y003103D02*
X001025Y003103D01*
X001025Y003421D02*
X001522Y003421D01*
X001558Y003740D02*
X001025Y003740D01*
X001025Y004058D02*
X001830Y004058D01*
X002524Y004058D02*
X002524Y004058D01*
X003218Y004058D02*
X008178Y004058D01*
X008996Y004058D02*
X008996Y004058D01*
X008996Y003740D02*
X008996Y003740D01*
X008996Y003560D02*
X008996Y003560D01*
X008996Y003560D01*
X010044Y003560D01*
X010044Y003517D01*
X010032Y003432D01*
X010010Y003349D01*
X009977Y003270D01*
X009935Y003196D01*
X009882Y003128D01*
X009822Y003067D01*
X009754Y003015D01*
X009680Y002972D01*
X009600Y002939D01*
X009518Y002917D01*
X009433Y002906D01*
X008996Y002906D01*
X008996Y003560D01*
X008996Y003421D02*
X008996Y003421D01*
X007963Y003421D02*
X003526Y003421D01*
X002524Y003421D02*
X002524Y003421D01*
X002524Y003103D02*
X002524Y003103D01*
X003386Y003103D02*
X008135Y003103D01*
X008996Y003103D02*
X008996Y003103D01*
X009857Y003103D02*
X011760Y003103D01*
X012260Y003103D02*
X012260Y003103D01*
X012260Y003421D02*
X012260Y003421D01*
X011760Y003421D02*
X010030Y003421D01*
X010018Y003740D02*
X012032Y003740D01*
X012260Y003740D02*
X012260Y003740D01*
X012488Y003740D02*
X012630Y003740D01*
X013010Y003591D02*
X013012Y003513D01*
X013018Y003436D01*
X013027Y003359D01*
X013040Y003283D01*
X013057Y003207D01*
X013078Y003132D01*
X013102Y003058D01*
X013130Y002986D01*
X013162Y002915D01*
X013197Y002846D01*
X013235Y002778D01*
X013276Y002713D01*
X013321Y002649D01*
X013369Y002588D01*
X013420Y002529D01*
X013473Y002473D01*
X013529Y002420D01*
X013588Y002369D01*
X013649Y002321D01*
X013713Y002276D01*
X013778Y002235D01*
X013846Y002197D01*
X013915Y002162D01*
X013986Y002130D01*
X014058Y002102D01*
X014132Y002078D01*
X014207Y002057D01*
X014283Y002040D01*
X014359Y002027D01*
X014436Y002018D01*
X014513Y002012D01*
X014591Y002010D01*
X020010Y002010D01*
X020470Y002147D02*
X023550Y002147D01*
X023550Y001829D02*
X020470Y001829D01*
X017343Y002784D02*
X017343Y004193D01*
X017215Y004322D01*
X015805Y004322D01*
X015677Y004193D01*
X015677Y002784D01*
X017343Y003103D02*
X019510Y003103D01*
X020010Y003103D02*
X020010Y003103D01*
X020510Y003103D02*
X023550Y003103D01*
X023630Y003421D02*
X020306Y003421D01*
X020010Y003421D02*
X020010Y003421D01*
X019714Y003421D02*
X017343Y003421D01*
X017343Y003740D02*
X023630Y003740D01*
X024390Y003740D02*
X024630Y003740D01*
X025390Y003740D02*
X034013Y003740D01*
X033634Y003421D02*
X029250Y003421D01*
X029201Y003470D02*
X028819Y003470D01*
X028550Y003201D01*
X028550Y002819D01*
X028819Y002550D01*
X029201Y002550D01*
X029470Y002819D01*
X029470Y003201D01*
X029201Y003470D01*
X028770Y003421D02*
X025390Y003421D01*
X024630Y003421D02*
X024390Y003421D01*
X025470Y003103D02*
X028550Y003103D01*
X029470Y003103D02*
X033315Y003103D01*
X033260Y002510D02*
X034028Y003278D01*
X034444Y003103D02*
X034517Y003103D01*
X035003Y003103D02*
X036517Y003103D01*
X037003Y003103D02*
X037621Y003103D01*
X037923Y003346D02*
X037891Y003376D01*
X037857Y003403D01*
X037820Y003428D01*
X037782Y003449D01*
X037742Y003467D01*
X037701Y003483D01*
X037658Y003495D01*
X037615Y003503D01*
X037572Y003508D01*
X037528Y003510D01*
X036760Y003510D01*
X036760Y004760D01*
X036760Y005760D01*
X037280Y005651D02*
X039471Y005651D01*
X039471Y005969D02*
X037280Y005969D01*
X036575Y006288D02*
X039471Y006288D01*
X039471Y006606D02*
X037007Y006606D01*
X036137Y006925D02*
X035220Y006925D01*
X034760Y007010D02*
X034242Y007010D01*
X035178Y007243D02*
X036342Y007243D01*
X036341Y006591D02*
X036305Y006558D01*
X036267Y006528D01*
X036227Y006501D01*
X036185Y006477D01*
X036140Y006457D01*
X036095Y006440D01*
X036048Y006427D01*
X036001Y006418D01*
X035952Y006412D01*
X035904Y006410D01*
X033525Y006410D02*
X033475Y006408D01*
X033425Y006402D01*
X033376Y006392D01*
X033327Y006379D01*
X033280Y006361D01*
X033234Y006340D01*
X033191Y006316D01*
X033149Y006288D01*
X033109Y006257D01*
X033072Y006223D01*
X033760Y005651D02*
X033760Y005651D01*
X034760Y005651D02*
X034760Y005651D01*
X034760Y005332D02*
X034760Y005332D01*
X033760Y005332D02*
X033760Y005332D01*
X033760Y005014D02*
X033760Y005014D01*
X034760Y005014D02*
X034760Y005014D01*
X034760Y004695D02*
X034760Y004695D01*
X033760Y004695D02*
X033760Y004695D01*
X033760Y004377D02*
X033760Y004377D01*
X034168Y004377D02*
X034352Y004377D01*
X034760Y004377D02*
X034760Y004377D01*
X035168Y004377D02*
X035352Y004377D01*
X035760Y004377D02*
X035760Y004377D01*
X036168Y004377D02*
X036380Y004377D01*
X037140Y004377D02*
X039471Y004377D01*
X039471Y004695D02*
X037280Y004695D01*
X037242Y005014D02*
X039471Y005014D01*
X039471Y005332D02*
X037140Y005332D01*
X035760Y005332D02*
X035760Y005332D01*
X035760Y005014D02*
X035760Y005014D01*
X035760Y004695D02*
X035760Y004695D01*
X036380Y004058D02*
X028720Y004058D01*
X028720Y004377D02*
X032408Y004377D01*
X033112Y004377D02*
X033352Y004377D01*
X035181Y003740D02*
X036339Y003740D01*
X036300Y003421D02*
X035220Y003421D01*
X037140Y004058D02*
X039471Y004058D01*
X039471Y003740D02*
X038041Y003740D01*
X038386Y003421D02*
X039471Y003421D01*
X039471Y003103D02*
X038705Y003103D01*
X038760Y002510D02*
X037924Y003346D01*
X037949Y002784D02*
X035283Y002784D01*
X035350Y002510D02*
X034760Y002510D01*
X034760Y002510D01*
X034760Y001920D01*
X034806Y001920D01*
X034898Y001935D01*
X034986Y001963D01*
X035069Y002005D01*
X035144Y002060D01*
X035210Y002126D01*
X035265Y002201D01*
X035307Y002284D01*
X035335Y002372D01*
X035350Y002464D01*
X035350Y002510D01*
X035350Y002466D02*
X038210Y002466D01*
X039310Y002466D02*
X039471Y002466D01*
X039471Y002784D02*
X039242Y002784D01*
X039175Y002147D02*
X039471Y002147D01*
X039380Y001829D02*
X024470Y001829D01*
X025435Y002784D02*
X028585Y002784D01*
X029435Y002784D02*
X031743Y002784D01*
X032260Y002784D02*
X032260Y002784D01*
X033805Y002466D02*
X034170Y002466D01*
X034170Y002464D02*
X034185Y002372D01*
X034213Y002284D01*
X034255Y002201D01*
X034310Y002126D01*
X034376Y002060D01*
X034451Y002005D01*
X034534Y001963D01*
X034622Y001935D01*
X034714Y001920D01*
X034760Y001920D01*
X034760Y002510D01*
X034760Y002510D01*
X034760Y002510D01*
X034170Y002510D01*
X034170Y002464D01*
X034760Y002466D02*
X034760Y002466D01*
X034587Y003510D02*
X034535Y003508D01*
X034484Y003503D01*
X034433Y003495D01*
X034382Y003483D01*
X034333Y003468D01*
X034284Y003450D01*
X034237Y003428D01*
X034191Y003404D01*
X034148Y003377D01*
X034105Y003347D01*
X034065Y003314D01*
X034028Y003278D01*
X034071Y002784D02*
X034237Y002784D01*
X034294Y002147D02*
X033805Y002147D01*
X034760Y002147D02*
X034760Y002147D01*
X035226Y002147D02*
X038345Y002147D01*
X027800Y004058D02*
X026368Y004058D01*
X026372Y004062D02*
X026437Y004218D01*
X026437Y004802D01*
X026372Y004958D01*
X026252Y005078D01*
X026095Y005143D01*
X025925Y005143D01*
X025768Y005078D01*
X025648Y004958D01*
X025583Y004802D01*
X025583Y004218D01*
X025648Y004062D01*
X025768Y003942D01*
X025925Y003877D01*
X026095Y003877D01*
X026252Y003942D01*
X026372Y004062D01*
X025652Y004058D02*
X025390Y004058D01*
X024630Y004058D02*
X024390Y004058D01*
X023630Y004058D02*
X023368Y004058D01*
X024473Y005297D02*
X024417Y005350D01*
X024358Y005401D01*
X024297Y005449D01*
X024233Y005494D01*
X024168Y005535D01*
X024100Y005573D01*
X024031Y005608D01*
X023960Y005640D01*
X023888Y005668D01*
X023814Y005692D01*
X023739Y005713D01*
X023663Y005730D01*
X023587Y005743D01*
X023510Y005752D01*
X023433Y005758D01*
X023355Y005760D01*
X023653Y005332D02*
X022395Y005332D01*
X021625Y005332D02*
X014619Y005332D01*
X013784Y005290D02*
X013754Y005260D01*
X012630Y005014D02*
X010673Y005014D01*
X010653Y004695D02*
X012630Y004695D01*
X012630Y004377D02*
X010437Y004377D01*
X007974Y003740D02*
X003490Y003740D01*
X002524Y003740D02*
X002524Y003740D01*
X004202Y004346D02*
X004428Y004253D01*
X004672Y004253D01*
X004897Y004346D01*
X005070Y004519D01*
X005163Y004744D01*
X005163Y005776D01*
X005070Y006001D01*
X004897Y006174D01*
X004672Y006267D01*
X004428Y006267D01*
X004202Y006174D01*
X004029Y006001D01*
X003936Y005776D01*
X003936Y004744D01*
X004029Y004519D01*
X004202Y004346D01*
X004172Y004377D02*
X001839Y004377D01*
X001083Y004377D02*
X001025Y004377D01*
X002054Y004695D02*
X003956Y004695D01*
X003936Y005014D02*
X002074Y005014D01*
X002074Y005332D02*
X003936Y005332D01*
X003936Y005651D02*
X002074Y005651D01*
X001994Y005969D02*
X004016Y005969D01*
X005083Y005969D02*
X006437Y005969D01*
X006357Y005651D02*
X005163Y005651D01*
X005163Y005332D02*
X006357Y005332D01*
X006357Y005014D02*
X005163Y005014D01*
X005143Y004695D02*
X006377Y004695D01*
X006592Y004377D02*
X004928Y004377D01*
X001025Y002466D02*
X012976Y002466D01*
X013262Y002147D02*
X001025Y002147D01*
X001116Y001829D02*
X013722Y001829D01*
X012764Y002834D02*
X012764Y002834D01*
X017343Y004058D02*
X019255Y004058D01*
X019510Y004058D02*
X019510Y004058D01*
X019765Y004058D02*
X020311Y004058D01*
X020709Y004058D02*
X022652Y004058D01*
X023437Y004695D02*
X023583Y004695D01*
X024437Y004695D02*
X024538Y004695D01*
X025317Y005014D02*
X025703Y005014D01*
X026317Y005014D02*
X026613Y005014D01*
X026550Y004695D02*
X026437Y004695D01*
X025583Y004695D02*
X025437Y004695D01*
X025437Y004377D02*
X025583Y004377D01*
X026437Y004377D02*
X026743Y004377D01*
X027277Y004377D02*
X027800Y004377D01*
X023703Y005014D02*
X023317Y005014D01*
X022703Y005014D02*
X022510Y005014D01*
X032510Y007562D02*
X032510Y007562D01*
X035146Y007562D02*
X037774Y007562D01*
X037992Y007242D02*
X037955Y007206D01*
X037915Y007173D01*
X037872Y007143D01*
X037829Y007116D01*
X037783Y007092D01*
X037736Y007070D01*
X037687Y007052D01*
X037638Y007037D01*
X037587Y007025D01*
X037536Y007017D01*
X037485Y007012D01*
X037433Y007010D01*
X035760Y005651D02*
X035760Y005651D01*
X023616Y007880D02*
X023404Y007880D01*
X010989Y007880D02*
X010021Y007880D01*
X008999Y007880D02*
X008289Y007880D01*
X008307Y007562D02*
X007792Y007562D01*
X008996Y007562D02*
X008996Y007562D01*
X006510Y007880D02*
X006510Y007880D01*
D27*
X007339Y007589D02*
X007644Y007894D01*
X008528Y008260D02*
X009510Y008260D01*
X010710Y008260D01*
X011990Y007620D02*
X012260Y007260D01*
X011991Y007620D02*
X011942Y007681D01*
X011891Y007740D01*
X011837Y007796D01*
X011780Y007850D01*
X011721Y007901D01*
X011659Y007948D01*
X011595Y007993D01*
X011529Y008035D01*
X011461Y008073D01*
X011391Y008108D01*
X011319Y008140D01*
X011246Y008167D01*
X011172Y008192D01*
X011097Y008213D01*
X011021Y008230D01*
X010944Y008243D01*
X010866Y008252D01*
X010788Y008258D01*
X010710Y008260D01*
X008528Y008260D02*
X008463Y008258D01*
X008397Y008253D01*
X008332Y008245D01*
X008268Y008233D01*
X008204Y008217D01*
X008142Y008199D01*
X008080Y008177D01*
X008020Y008152D01*
X007961Y008124D01*
X007903Y008093D01*
X007847Y008058D01*
X007793Y008021D01*
X007741Y007981D01*
X007692Y007939D01*
X007644Y007894D01*
X007339Y007589D02*
X007293Y007541D01*
X007251Y007491D01*
X007210Y007439D01*
X007173Y007385D01*
X007139Y007329D01*
X007107Y007271D01*
X007079Y007211D01*
X007054Y007150D01*
X007032Y007088D01*
X007013Y007025D01*
X006998Y006961D01*
X006986Y006896D01*
X006977Y006831D01*
X006972Y006765D01*
X006970Y006699D01*
X006970Y005260D01*
X032760Y005760D02*
X032760Y005910D01*
X034587Y003510D02*
X034760Y003510D01*
M02*
