G75*
%MOIN*%
%OFA0B0*%
%FSLAX24Y24*%
%IPPOS*%
%LPD*%
%AMOC8*
5,1,8,0,0,1.08239X$1,22.5*
%
%ADD10C,0.0010*%
%ADD11C,0.0394*%
D10*
X001260Y001510D02*
X039236Y001510D01*
X039280Y001512D01*
X039323Y001518D01*
X039366Y001527D01*
X039407Y001540D01*
X039448Y001557D01*
X039487Y001577D01*
X039523Y001601D01*
X039558Y001627D01*
X039590Y001657D01*
X039620Y001689D01*
X039646Y001724D01*
X039670Y001760D01*
X039690Y001799D01*
X039707Y001840D01*
X039720Y001881D01*
X039729Y001924D01*
X039735Y001967D01*
X039737Y002011D01*
X039736Y002011D02*
X039736Y008514D01*
X039737Y008514D02*
X039735Y008556D01*
X039730Y008597D01*
X039721Y008637D01*
X039708Y008677D01*
X039692Y008716D01*
X039673Y008753D01*
X039651Y008788D01*
X039625Y008821D01*
X039597Y008851D01*
X039567Y008879D01*
X039534Y008905D01*
X039499Y008927D01*
X039462Y008946D01*
X039423Y008962D01*
X039383Y008975D01*
X039343Y008984D01*
X039302Y008989D01*
X039260Y008991D01*
X039260Y008990D02*
X001240Y008990D01*
X001198Y008988D01*
X001157Y008983D01*
X001116Y008974D01*
X001076Y008961D01*
X001037Y008945D01*
X001000Y008926D01*
X000965Y008903D01*
X000931Y008878D01*
X000901Y008849D01*
X000872Y008819D01*
X000847Y008785D01*
X000824Y008750D01*
X000805Y008713D01*
X000789Y008674D01*
X000776Y008634D01*
X000767Y008593D01*
X000762Y008552D01*
X000760Y008510D01*
X000760Y002010D01*
X000762Y001966D01*
X000768Y001923D01*
X000777Y001881D01*
X000790Y001839D01*
X000807Y001799D01*
X000827Y001760D01*
X000850Y001723D01*
X000877Y001689D01*
X000906Y001656D01*
X000939Y001627D01*
X000973Y001600D01*
X001010Y001577D01*
X001049Y001557D01*
X001089Y001540D01*
X001131Y001527D01*
X001173Y001518D01*
X001216Y001512D01*
X001260Y001510D01*
D11*
X002130Y003410D02*
X002917Y003410D01*
X001461Y004768D02*
X001461Y005752D01*
X004650Y005752D02*
X004650Y004768D01*
X006870Y004768D02*
X006870Y005752D01*
X010059Y005752D02*
X010059Y004768D01*
X009488Y003410D02*
X008504Y003410D01*
X008603Y007110D02*
X009390Y007110D01*
X003016Y007110D02*
X002032Y007110D01*
M02*
