%
M48
M72
T01C0.0197
T02C0.0276
T03C0.0315
T04C0.0320
T05C0.0400
T06C0.0433
T07C0.0440
T08C0.0827
%
T01
X10059Y5260
X6970Y5260
X4550Y5260
X1461Y5260
X2524Y3510
X8996Y3560
X8996Y7010
X2524Y6960
T02
X33260Y2510
X32260Y2510
X26010Y4510
X25010Y4510
X24010Y4510
X23010Y4510
X23010Y7510
X24010Y7510
X25010Y7510
X26010Y7510
X32510Y7760
X33510Y7760
T03
X31260Y8510
X30260Y8510
T04
X36760Y3510
X34760Y3510
X29010Y3010
X25010Y3010
X24010Y3010
X24010Y2010
X20010Y2010
X20010Y3010
X19510Y4510
X20510Y4510
X22010Y5010
X27010Y4760
X28260Y4260
X27010Y6760
X28260Y7260
X22010Y7010
X20510Y8510
X19510Y8510
X12260Y7260
X9510Y8260
X6510Y8260
X12260Y3260
X34760Y7010
X36760Y7010
T05
X36760Y4760
X35760Y4760
X34760Y4760
X33760Y4760
X32760Y4760
X32760Y5760
X33760Y5760
X34760Y5760
X35760Y5760
X36760Y5760
T06
X13754Y4276
X13754Y5260
X13754Y6244
T07
X38760Y2510
X34760Y2510
X34760Y8010
X38760Y8010
T08
X16510Y3488
X16510Y7032
M30
